<?xml version="1.0" encoding="UTF-8"?>
<svg width="414px" height="896px" viewBox="0 0 414 896" version="1.1" xmlns="http://www.w3.org/2000/svg" xmlns:xlink="http://www.w3.org/1999/xlink">
    <title>choose asso/bene copy 2</title>
    <defs>
        <polygon id="path-1" points="0 0.340961538 8.8943625 0.340961538 8.8943625 8.76496154 0 8.76496154"></polygon>
        <polygon id="path-3" points="0 0.340961538 7.9061 0.340961538 7.9061 8.76496154 0 8.76496154"></polygon>
        <polygon id="path-5" points="0.387475657 0.264385965 19.9562358 0.264385965 19.9562358 21.7677754 0.387475657 21.7677754"></polygon>
        <polygon id="path-7" points="0 0.4925 11.85915 0.4925 11.85915 12.6605 0 12.6605"></polygon>
        <polygon id="path-9" points="0 0.303076923 6.9178375 0.303076923 6.9178375 7.79107692 0 7.79107692"></polygon>
    </defs>
    <g id="choose-asso/bene-copy-2" stroke="none" stroke-width="1" fill="none" fill-rule="evenodd">
        <rect fill="#F9D655" x="0" y="0" width="414" height="896"></rect>
        <circle id="Oval-Copy-2" fill="#FFFFFF" cx="124" cy="874" r="297"></circle>
        <g id="Group-42-Copy-4" transform="translate(126.000000, 790.500000) rotate(19.000000) translate(-126.000000, -790.500000) translate(112.000000, 775.000000)">
            <path d="M4.54251365,0.303694177 C4.08536218,0.517601174 3.65031312,0.849485811 3.2521014,1.31482056 C2.56140116,2.12171025 2.16724155,2.9015231 2,3.64497563 C4.90572988,2.60986691 9.46656174,5.16940145 11.3861559,9 L13,8.14166433 C12.2389404,3.2546824 7.80630254,-1.2226657 4.54251365,0.303694177" id="Fill-1" fill="#C2E3F5"></path>
            <path d="M13.975138,30.3703727 C13.6589415,29.4020792 13.4453806,28.4226742 13.3320867,27.4258081 C13.2527415,26.7270494 11.9247952,26.9511856 12.0033508,27.6426423 C12.1166447,28.6395084 12.3306004,29.6189134 12.6464021,30.586572 C12.8670686,31.2640599 14.1969887,31.0500829 13.975138,30.3703727" id="Fill-3" fill="#000000"></path>
            <path d="M18.9358599,28.1444813 C18.4343101,27.1978609 17.9164985,26.2563611 17.3828529,25.3203232 C16.9912846,24.6334857 15.6809217,25.1643168 16.072062,25.8508129 C16.6057076,26.7858267 17.1230912,27.7276679 17.624641,28.6742883 C17.9931004,29.3700013 19.3026074,28.8367806 18.9358599,28.1444813" id="Fill-5" fill="#000000"></path>
            <path d="M23.8551279,25.9309003 C23.2096169,25.1144375 22.6452758,24.2505316 22.1519584,23.3244715 C21.7751479,22.6176059 20.7010455,23.183981 21.0796054,23.8952599 C21.6247036,24.9173095 22.2537707,25.8794116 22.9657572,26.7811985 C23.4597743,27.40605 24.3494949,26.5568551 23.8551279,25.9309003" id="Fill-7" fill="#000000"></path>
            <path d="M26.7969173,23.7439781 C25.9431598,22.8253931 25.0367118,21.9720749 24.0835705,21.1646198 C23.3548994,20.5467909 22.5615432,21.8230198 23.2867873,22.4368798 C24.1405448,23.1609875 24.9437537,23.9406602 25.7079802,24.763109 C26.3608285,25.4651672 27.4544777,24.4508872 26.7969173,23.7439781" id="Fill-9" fill="#000000"></path>
            <path d="M15.0454012,27 C15.8035784,26.8415985 16.5540397,26.5709355 17.274979,26.1756585 L19,25.2296094 C18.3377691,24.5342416 17.7231758,23.7851045 17.1444786,23 C15.8002237,23.6586739 14.4059827,24.2029064 13,24.6268847 C13.6400895,25.4653951 14.322449,26.2603088 15.0454012,27" id="Fill-11" fill="#E0BF3B"></path>
            <path d="M10.7271434,9 L9.14080011,9.85115766 C8.3347906,10.2837192 7.61864613,10.8316795 7,11.4656376 C7.64848548,16.3807424 9.71503418,21.1572951 12.7138892,25 C14.1680372,24.5714811 15.6093474,24.0205807 17,23.3542815 C13.933139,19.2829842 11.9554145,14.1271591 10.7271434,9" id="Fill-13" fill="#FFE05C"></path>
            <path d="M15,26.8690038 C14.2147728,26.2864423 13.4736349,25.660389 12.7784082,25 C11.1817188,25.3490791 9.57264067,25.5951512 8,25.7339245 C10.0270158,26.8106332 12.5528603,27.2401149 15,26.8690038" id="Fill-15" fill="#000000"></path>
            <path d="M6.88931069,11 C3.98795778,13.690394 3.10074268,17.9953798 5.0146931,21.6147949 C5.76164583,23.0268075 6.84997786,24.1676483 8.13386084,25 C9.73574606,24.8279854 11.3739956,24.5219842 13,24.0883936 C9.79251892,20.3723091 7.58245907,15.7527924 6.88931069,11" id="Fill-17" fill="#000000"></path>
            <path d="M17,22.7457391 C17.5523789,23.5395239 18.1386815,24.2969439 18.7701088,25 L21.912844,23.1725683 C22.2978451,22.9488686 22.6604438,22.6932119 23,22.4118425 C22.3605718,21.6342198 21.7502667,20.8286806 21.1671645,20 C19.8806273,21.0645019 18.4724771,21.98134 17,22.7457391" id="Fill-19" fill="#000000"></path>
            <path d="M22,20.1989595 C18.8538585,16.0674809 16.511672,11.3228765 15.5025723,6 C15.2231511,6.1135557 14.9476206,6.24285179 14.6745659,6.38976213 L11,8.36218337 C12.25209,13.5909923 14.2688746,18.8482838 17.3945016,23 C19.021865,22.2204757 20.578135,21.2846719 22,20.1989595" id="Fill-21" fill="#000000"></path>
            <path d="M27.1320217,10.9359084 L27.1320217,10.9359084 C25.0584987,6.78425951 20.1955189,4.95637388 16,6.59963175 C16.9952631,11.623134 19.3045247,16.1008879 22.4060911,20 C24.7279068,18.3043956 26.6870477,16.2236194 28,13.7895039 C27.8713202,12.8193239 27.5909448,11.855864 27.1320217,10.9359084" id="Fill-23" fill="#FFE05C"></path>
            <path d="M22,20.5505078 C22.6717365,21.3921244 23.3755659,22.2098653 24.1125948,23 C26.9459877,20.9295337 28.3717218,17.4269016 27.9165197,14 C26.527674,16.5673782 24.4556563,18.7620725 22,20.5505078" id="Fill-25" fill="#E0BF3B"></path>
            <path d="M22.9459283,11.2743649 C23.0706533,11.5205415 22.972293,11.8210635 22.7260878,11.9459769 C22.4792742,12.0706874 22.1789201,11.9721357 22.0539923,11.725959 C21.9292673,11.4795796 22.0280333,11.1790576 22.2740356,11.0541442 C22.520038,10.9292309 22.8212033,11.0277827 22.9459283,11.2743649" id="Fill-27" fill="#000000"></path>
            <path d="M25.7835676,14.0966978 C26.2828188,15.0813608 25.8890919,16.28503 24.903391,16.7839352 C23.918382,17.2824944 22.7154047,16.8891135 22.2161536,15.9037585 C21.7172484,14.9184036 22.1113212,13.7154263 23.0963302,13.2165211 C24.0813392,12.716924 25.2850084,13.1113428 25.7835676,14.0966978" id="Fill-29" fill="#F7B8B8"></path>
            <g id="Group-33" transform="translate(0.000000, 3.000000)">
                <mask id="mask-2" fill="white">
                    <use xlink:href="#path-1"></use>
                </mask>
                <g id="Clip-32"></g>
                <path d="M2.3284875,0.455192308 C1.5053625,0.793730769 0.8374875,1.41092308 0.4343625,2.35765385 C-1.4957625,6.89019231 3.4546125,8.39907692 6.4782375,8.74661538 C6.7493625,8.42503846 7.0456125,8.11973077 7.3669875,7.83276923 C7.4138625,8.14430769 7.4678625,8.45515385 7.5286125,8.76496154 C7.4678625,8.45515385 7.4138625,8.14430769 7.3669875,7.83276923 C7.8267375,7.42188462 8.3367375,7.04907692 8.8943625,6.72403846 C8.2602375,6.6015 7.6789875,6.44088462 7.2361125,6.23042308 C5.0697375,5.20096154 1.9519875,3.04269231 2.6453625,0.340961538 C2.5373625,0.374884615 2.4312375,0.412615385 2.3284875,0.455192308" id="Fill-31" fill="#C2E3F5" mask="url(#mask-2)"></path>
            </g>
            <path d="M2.09187308,3.21946847 C1.44549028,6.08942772 4.35159102,8.38208575 6.371144,9.4756487 C6.78435356,9.69921503 7.3269096,9.86983144 7.9173588,10 C8.15262955,9.84335648 8.39698952,9.69700879 8.65078829,9.56206003 L10.2483921,8.71081651 L11,8.31038273 C9.17831217,4.66897255 4.85009934,2.23585015 2.09187308,3.21946847" id="Fill-34" fill="#A6D9F2"></path>
            <path d="M10.4174819,8 L8.96293645,8.98532227 C8.73260161,9.14145926 8.51022031,9.3103595 8.29579257,9.49159753 C7.82335163,9.89151244 7.39004215,10.3492874 7,10.8542863 C7.0400859,11.2371836 7.08558021,11.61923 7.13711922,12 C8.41095999,11.8783238 10.0385747,11.2244203 11,10.7930228 C10.7881174,9.86428419 10.5943689,8.93171666 10.4174819,8" id="Fill-36" fill="#C2D6AB"></path>
            <path d="M6.84576937,11 C6.54016423,11.3022281 6.2581221,11.6245317 6,11.9632607 C6.02749018,11.9669108 6.05390932,11.9701959 6.08104248,11.973481 C6.35665834,12.0070619 6.66761871,12.0070619 7,11.9829712 C6.94216351,11.6559225 6.8907533,11.3285088 6.84576937,11" id="Fill-38" fill="#4F7082"></path>
            <path d="M11.4889597,9 L11,9.42689142 C11.1261097,10.2853783 11.2651946,11.1446492 11.4167995,12 C11.7719099,11.7945904 12,11.6436691 12,11.6436691 C11.9216936,10.7193258 11.742545,9.82987064 11.4889597,9" id="Fill-40" fill="#4F7082"></path>
        </g>
        <g id="Group-42-Copy-3" transform="translate(140.500000, 668.500000) rotate(14.000000) translate(-140.500000, -668.500000) translate(127.000000, 653.000000)">
            <path d="M5.420093,1.01103249 C5.00450075,1.20117205 4.60900161,1.49618061 4.24699096,1.9098115 C3.61908164,2.62704678 3.26075473,3.32021376 3.10871695,3.98106046 C5.75028957,3.06096381 9.89650035,5.33610563 11.6415859,8.74108211 L13.108717,7.97811707 C12.4168446,3.63413313 8.3871738,-0.345731842 5.420093,1.01103249" id="Fill-1" fill="#C2E3F5"></path>
            <path d="M13.9196847,29.6404741 C13.6034882,28.6721806 13.3899273,27.6927756 13.2766334,26.6959095 C13.1972882,25.9971509 11.8693419,26.221287 11.9478976,26.9127438 C12.0611914,27.9096098 12.2751471,28.8890149 12.5909489,29.8566734 C12.8116153,30.5341614 14.1415354,30.3201844 13.9196847,29.6404741" id="Fill-3" fill="#000000"></path>
            <path d="M18.5048155,27.3556384 C18.0032657,26.4090181 17.4854541,25.4675182 16.9518085,24.5314803 C16.5602402,23.8446429 15.2498773,24.375474 15.6410176,25.0619701 C16.1746632,25.9969839 16.6920468,26.9388251 17.1935966,27.8854454 C17.5620559,28.5811585 18.871563,28.0479378 18.5048155,27.3556384" id="Fill-5" fill="#000000"></path>
            <path d="M23.1546012,25.2145751 C22.5090902,24.602228 21.9447491,23.9542985 21.4514317,23.2597535 C21.0746212,22.7296043 20.0005188,23.1543856 20.3790786,23.6878448 C20.9241769,24.454382 21.553244,25.1759586 22.2652304,25.8522987 C22.7592476,26.3209373 23.6489682,25.6840412 23.1546012,25.2145751" id="Fill-7" fill="#000000"></path>
            <path d="M25.5742047,22.4080262 C24.9338865,21.7190875 24.2540505,21.0790989 23.5391946,20.4735075 C22.9926912,20.0101359 22.3976741,20.9673076 22.9416071,21.4277025 C23.5819253,21.9707833 24.184332,22.5555378 24.7575019,23.1723745 C25.247138,23.6989181 26.067375,22.9382081 25.5742047,22.4080262" id="Fill-9" fill="#000000"></path>
            <path d="M15.1453651,26.3915267 C15.9035424,26.2331252 16.6540036,25.9624622 17.374943,25.5671852 L19.0999639,24.6211361 C18.437733,23.9257683 17.8231398,23.1766311 17.2444426,22.3915267 C15.9001876,23.0502006 14.5059466,23.5944331 13.0999639,24.0184113 C13.7400534,24.8569218 14.4224129,25.6518355 15.1453651,26.3915267" id="Fill-11" fill="#E0BF3B"></path>
            <path d="M11.4426133,9.00689585 L10.0149043,9.80485616 C9.28949578,10.2103826 8.64496575,10.7240954 8.08818424,11.3184311 C8.67182117,15.9263418 10.531715,20.40436 13.2306845,24.0068958 C14.5394177,23.6051594 15.8365969,23.0886902 17.0881842,22.4640348 C14.3280094,18.6471935 12.5480572,13.8136075 11.4426133,9.00689585" id="Fill-13" fill="#FFE05C"></path>
            <path d="M14.9917113,25.3788833 C14.2064841,24.7963218 13.4653462,24.1702685 12.7701195,23.5098795 C11.1734301,23.8589586 9.56435195,24.1050307 7.99171128,24.243804 C10.018727,25.3205127 12.5445716,25.7499944 14.9917113,25.3788833" id="Fill-15" fill="#000000"></path>
            <path d="M7.76042536,10.8536225 C5.181445,13.3518455 4.39280936,17.3493323 6.09409862,20.7102177 C6.7580566,22.0213723 7.72546285,23.0807244 8.86669217,23.8536225 C10.2905901,23.6938946 11.7468119,23.4097506 13.1921492,23.0071308 C10.3410549,19.5564809 8.37655726,15.2669298 7.76042536,10.8536225" id="Fill-17" fill="#000000"></path>
            <path d="M16.618264,22.2141346 C17.1706429,23.0079195 17.7569455,23.7653394 18.3883728,24.4683955 L21.531108,22.6409638 C21.9161091,22.4172642 22.2787078,22.1616074 22.618264,21.880238 C21.9788358,21.1026153 21.3685307,20.2970761 20.7854285,19.4683955 C19.4988913,20.5328974 18.0907411,21.4497355 16.618264,22.2141346" id="Fill-19" fill="#000000"></path>
            <path d="M21.8484062,20.417787 C18.7022647,16.5293365 16.3600782,12.0638265 15.3509785,7.0540604 C15.0715573,7.16093635 14.7960268,7.28262679 14.5229721,7.42089535 L10.8484062,9.27729181 C12.1004962,14.1985237 14.1172808,19.1465628 17.2429078,23.0540604 C18.8702711,22.3203905 20.4265412,21.4396339 21.8484062,20.417787" id="Fill-21" fill="#000000"></path>
            <path d="M25.7832771,11.4426466 L25.7832771,11.4426466 C23.8825477,7.58754404 19.4248162,5.89022166 15.5789239,7.41610397 C16.4912484,12.0807846 18.6080715,16.238699 21.451174,19.8593031 C23.5795051,18.2848132 25.3753843,16.3526639 26.5789239,14.0924138 C26.4609674,13.1915324 26.2039566,12.2968911 25.7832771,11.4426466" id="Fill-23" fill="#FFE05C"></path>
            <path d="M21.8500858,20.0347593 C22.4098662,20.782863 22.9963907,21.5097438 23.6105815,22.2120858 C25.9717422,20.3716713 27.1598539,17.2582205 26.7805189,14.2120858 C25.6231474,16.4941998 23.896466,18.4450391 21.8500858,20.0347593" id="Fill-25" fill="#E0BF3B"></path>
            <path d="M23.2235218,11.6795284 C23.3482468,11.925705 23.2498864,12.2262271 23.0036812,12.3511404 C22.7568676,12.475851 22.4565136,12.3772992 22.3315857,12.1311226 C22.2068607,11.8847432 22.3056267,11.5842211 22.5516291,11.4593078 C22.7976314,11.3343944 23.0987967,11.4329462 23.2235218,11.6795284" id="Fill-27" fill="#000000"></path>
            <path d="M25.8930356,14.2769354 C26.3922867,15.2615984 25.9985599,16.4652677 25.0128589,16.9641728 C24.0278499,17.462732 22.8248726,17.0693512 22.3256215,16.0839962 C21.8267163,15.0986412 22.2207891,13.8956639 23.2057981,13.3967588 C24.1908071,12.8971616 25.3944764,13.2915804 25.8930356,14.2769354" id="Fill-29" fill="#F7B8B8"></path>
            <g id="Group-33" transform="translate(0.832339, 3.634509)">
                <mask id="mask-4" fill="white">
                    <use xlink:href="#path-3"></use>
                </mask>
                <g id="Clip-32"></g>
                <path d="M2.06976667,0.455192308 C1.3381,0.793730769 0.744433333,1.41092308 0.3861,2.35765385 C-1.32956667,6.89019231 3.07076667,8.39907692 5.75843333,8.74661538 C5.99943333,8.42503846 6.26276667,8.11973077 6.54843333,7.83276923 C6.5901,8.14430769 6.6381,8.45515385 6.6921,8.76496154 C6.6381,8.45515385 6.5901,8.14430769 6.54843333,7.83276923 C6.9571,7.42188462 7.41043333,7.04907692 7.9061,6.72403846 C7.34243333,6.6015 6.82576667,6.44088462 6.4321,6.23042308 C4.50643333,5.20096154 1.7351,3.04269231 2.35143333,0.340961538 C2.25543333,0.374884615 2.1611,0.412615385 2.06976667,0.455192308" id="Fill-31" fill="#C2E3F5" mask="url(#mask-4)"></path>
            </g>
            <path d="M2.84995119,4.24917274 C2.20356838,7.11913199 5.10966912,9.41179003 7.12922211,10.505353 C7.54243167,10.7289193 8.08498771,10.8995357 8.6754369,11.0297043 C8.91070766,10.8730608 9.15506763,10.7267131 9.40886639,10.5917643 L11.0064702,9.74052078 L11.7580781,9.34008701 C9.93639027,5.69867683 5.60817744,3.26555442 2.84995119,4.24917274" id="Fill-34" fill="#A6D9F2"></path>
            <path d="M11.0986912,9.54800434 L9.64414573,10.286996 C9.41381088,10.4040988 9.19142959,10.530774 8.97700185,10.6667025 C8.5045609,10.9666387 8.07125143,11.3099699 7.68120928,11.6887191 C7.72129517,11.975892 7.76678949,12.2624268 7.8183285,12.5480043 C9.09216927,12.4567472 10.719784,11.9663196 11.6812093,11.6427714 C11.4693267,10.9462175 11.2755782,10.2467918 11.0986912,9.54800434" id="Fill-36" fill="#C2D6AB"></path>
            <path d="M7.60123933,11.1528091 C7.29563419,11.4550371 7.01359206,11.7773407 6.75546996,12.1160698 C6.78296014,12.1197199 6.80937928,12.123005 6.83651245,12.12629 C7.1121283,12.1598709 7.42308867,12.1598709 7.75546996,12.1357803 C7.69763347,11.8087316 7.64622326,11.4813178 7.60123933,11.1528091" id="Fill-38" fill="#4F7082"></path>
            <path d="M12.0959083,8.9431996 L11.6069486,9.37009101 C11.7330583,10.2285779 11.8721432,11.0878488 12.023748,11.9431996 C12.3788584,11.73779 12.6069486,11.5868687 12.6069486,11.5868687 C12.5286422,10.6625254 12.3494935,9.77307024 12.0959083,8.9431996" id="Fill-40" fill="#4F7082"></path>
        </g>
        <g id="Group-18" transform="translate(337.000000, 668.500000) scale(-1, 1) translate(-337.000000, -668.500000) translate(253.000000, 598.000000)">
            <path d="M145.205157,39.7463246 C146.196877,39.7463246 147,38.9392265 147,37.9434872 C147,36.9481459 146.196877,36.1410479 145.205157,36.1410479 L138.86417,36.1410479 C129.668472,36.1410479 120.450585,33.978041 112.207382,29.886834 L111.173267,29.3734432 C100.135972,23.8956831 87.7951378,21 75.4844156,21 L9.27997146,21 C8.2886475,21 0,21.807098 0,22.8028373 C0,23.7985766 8.2886475,24.6056747 9.27997146,24.6056747 L75.4844156,24.6056747 C75.541074,24.6056747 75.5977324,24.6064706 75.6539946,24.6064706 L75.6539946,53.1971627 C75.6539946,54.192902 76.4575138,55 77.4488378,55 C78.4401617,55 79.2436809,54.192902 79.2436809,53.1971627 L79.2436809,24.7011892 C89.7452962,25.2249274 100.161726,27.9291834 109.584058,32.6058152 L110.617777,33.1188079 C114.652014,35.1210319 118.907733,36.6811031 123.278355,37.7874801 C124.346544,40.7703203 128.98025,50.8598417 143.703115,54.4746699 C143.846148,54.5096919 143.989577,54.5268049 144.130232,54.5268049 C144.93811,54.5268049 145.671895,53.9748104 145.872379,53.1517932 C146.107729,52.1847083 145.518165,51.2088679 144.554972,50.9728673 C138.322944,49.4426444 133.391285,46.4713456 129.897086,42.1417502 C128.896649,40.9016528 128.16326,39.72165 127.638278,38.7338702 C131.343659,39.4016762 135.105697,39.7463246 138.86417,39.7463246 L145.205157,39.7463246 Z" id="Fill-1" fill="#000000"></path>
            <path d="M121,96.0013767 L121,96.1366837 C121,96.6118315 120.961293,97.0798993 120.8902,97.5357738 C120.210463,101.827838 116.453549,105.136959 111.962394,105.136959 L107.361438,105.136959 C111.602185,105.873674 114.853148,109.576917 114.853148,114.001927 L114.853148,114.089641 C114.853148,114.564789 114.815231,115.032857 114.743743,115.488731 C114.063612,119.781188 110.309462,123.089916 105.815937,123.089916 L98.4549606,123.089916 C100.644651,123.398684 102.588672,124.496086 103.986456,126.08083 C105.38187,127.665181 106.230651,129.738446 106.230651,131.999725 C106.230651,132.64794 106.13191,133.381115 106.118876,133.408648 C106.037908,133.950269 105.864518,134.624051 105.601471,135.292326 C105.601471,135.292326 105.601471,135.294293 105.599101,135.296653 C104.788631,137.354971 103.204819,139.126942 100.904933,140.201925 L100.902563,140.201925 C99.7247754,140.720339 98.5177601,141 97.193835,141 L55.8045852,141 C55.725987,141 55.6497586,141 55.5731352,140.99764 C54.4735506,140.96932 53.4241266,140.743546 52.4533008,140.354145 C51.310665,139.898271 50.2805943,139.211509 49.4215438,138.3564 C47.7832259,136.724456 46.7669791,134.474977 46.7669791,131.999725 C46.7669791,127.477167 50.1632895,123.707451 54.5430646,123.089916 L47.1820881,123.089916 C42.2110493,123.089916 38.144482,119.039753 38.144482,114.089641 L38.144482,114.001927 C38.144482,109.576523 41.395445,105.873281 45.6361922,105.136959 L41.0372111,105.136959 C36.0665673,105.136959 32,101.087189 32,96.1366837 L32,96.0013767 C32,91.0508712 36.0665673,87.0011013 41.0372111,87.0011013 L45.9699382,87.0011013 C41.5668602,86.4071666 38.1440871,82.6256506 38.1440871,78.0838195 L38.1440871,77.9980727 C38.1440871,73.0483539 42.2110493,68.9981907 47.1816931,68.9981907 L54.5304257,68.9981907 C50.1581549,68.3779025 46.7665841,64.6109399 46.7665841,60.0903489 L46.7665841,60.0002753 C46.7665841,55.0497699 50.8335463,51 55.8041902,51 L97.1926501,51 C104.351009,51 108.72249,59.0051396 104.719907,65.0573744 C104.715563,65.0597344 104.713193,65.0620944 104.713193,65.0672077 C103.211928,67.1947529 101.250528,68.4628627 98.9052215,68.9246371 C98.7424957,68.9553172 98.4751038,68.997404 98.4660196,68.998584 L105.815147,68.998584 C112.439513,68.998584 117.193715,76.1399615 113.690764,82.4832636 L113.688394,82.486017 C113.465239,82.8773846 113.205351,83.2715056 112.93006,83.6140997 C112.93006,83.6164597 112.93006,83.6164597 112.928085,83.6164597 C111.862073,84.9994231 110.265621,86.0862058 108.777785,86.580627 C108.770676,86.5857403 108.765541,86.587707 108.758827,86.587707 C108.326734,86.7462207 107.645023,86.9177145 107.041121,86.998348 C107.036381,86.998348 107.031642,87.000708 107.026902,87.000708 L111.961604,87.000708 C116.930668,87.0011013 121,91.0508712 121,96.0013767" id="Fill-3" fill="#FFD422"></path>
            <path d="M53.2928045,105.112699 L112.060771,105.112699 C116.55787,105.112699 120.319029,101.805454 121,97.5153131 C53.8377396,97.6678584 42.8915835,97.3714173 40.5845071,97.5455863 C40.1147082,97.5809705 39.6975046,97.238923 39.6599365,96.7714581 C39.2316603,91.4614657 43.4404731,86.9849684 48.6861653,86.9849684 L53.6269628,86.9849684 C53.6222174,86.9845752 53.6170765,86.9833957 53.612331,86.9826094 L107.13421,86.9826094 C111.102982,86.4412308 114.272543,83.3187697 114.857814,79.3852236 L46.621502,79.3852236 C46.1892712,79.3852236 45.8357357,79.0482872 45.8076585,78.6193518 C45.462032,73.3699057 49.6593767,68.9901252 54.8402145,68.9901252 L62.1980245,68.9901252 C62.1742973,68.9877663 62.1481974,68.9830484 62.1240747,68.9783305 C99.9341859,68.9331173 98.3076851,69.0825174 99.3279555,68.8430841 C102.908788,68.0103754 105.690409,65.0439981 106.226248,61.3805515 L55.1818864,61.3805515 C54.7975055,61.381731 54.4744199,61.1037683 54.4471336,60.722405 C54.0599845,55.3353536 58.3344427,51 63.4733624,51 L55.833594,51 C50.8564148,51 46.7848244,55.0483483 46.7848244,59.9962421 L46.7848244,60.0862753 C46.7848244,64.6048405 50.1805846,68.3705082 54.5582561,68.9901252 L47.2008416,68.9901252 C42.2236623,68.9901252 38.1520719,73.0384735 38.1520719,77.9863673 L38.1520719,78.0716826 C38.1520719,82.6114784 41.579073,86.3912998 45.9875899,86.9849684 L41.0487697,86.9849684 C36.0715904,86.9849684 32,91.0333166 32,95.9808173 L32,96.1164568 C32,101.064744 36.0719859,105.112699 41.0487697,105.112699 L45.6530361,105.112699 C41.4070506,105.848691 38.1516765,109.550274 38.1516765,113.973302 L38.1516765,114.061369 C38.1516765,119.009656 42.2240578,123.057611 47.2004461,123.057611 L47.2601596,123.057611 L54.5701197,123.057611 C50.1857255,123.674869 46.7848244,127.442896 46.7848244,131.963427 C46.7848244,135.737351 49.1472643,138.978546 52.4773792,140.312138 C52.4777746,140.312531 52.4777746,140.313317 52.4781701,140.31371 C55.0865821,141.359117 56.6636511,140.802012 63.4733624,140.959669 C63.4417261,140.959669 63.4108808,140.957703 63.3796399,140.95731 C99.404278,140.94984 98.4176212,141.290708 100.986488,140.161951 L100.989256,140.161951 C103.332319,139.068579 104.903851,137.250223 105.688827,135.258877 C105.691595,135.256518 105.691595,135.254159 105.691595,135.254159 C105.924122,134.664422 106.116708,133.993695 106.209244,133.371719 C106.211617,133.366608 106.211617,133.364249 106.211617,133.359924 L55.6299354,133.359924 C54.9719006,133.359924 54.4431791,132.832699 54.4273609,132.178484 C54.3154476,127.666603 57.6578215,123.698459 62.2102836,123.057611 L105.906722,123.057611 C110.405798,123.057611 114.16498,119.749972 114.84516,115.459439 L46.8461197,115.459439 C46.2909028,115.459439 45.8309902,115.026572 45.8040994,114.474971 C45.7894676,114.182855 45.7918403,113.985883 45.7914449,113.973302 C45.7914449,109.550667 49.046819,105.849084 53.2928045,105.112699" id="Fill-5" fill="#EEBF00"></path>
            <path d="M81.2867414,114.507055 C81.217033,114.523785 81.1497145,114.538125 81.0796077,114.552465 C70.9284629,116.787548 60.8442382,110.436423 58.4940673,100.285139 C56.1267681,90.0637469 62.4945362,79.8590852 72.7153894,77.4945418 C75.5686562,76.8332982 78.4191346,76.8524185 81.0991261,77.4487328 C88.0197818,78.9811449 93.8004055,84.3455832 95.5060719,91.7140675 C97.8729728,101.935061 91.5052047,112.139723 81.2867414,114.507055" id="Fill-7" fill="#1D1D1F"></path>
            <path d="M81.1984384,114.954716 C81.1283116,114.9714 81.0605892,114.9857 80.9900616,115 C74.0278709,113.469886 68.2125543,108.120048 66.497052,100.772561 C64.1155452,90.5797458 70.5211292,80.4036137 80.8041254,78.045681 C80.8718478,78.0289975 80.9419746,78.0143001 81.0096971,78 C87.9718878,79.5281279 93.7872044,84.8775685 95.5031075,92.2254525 C97.8842136,102.417871 91.4782288,112.594003 81.1984384,114.954716" id="Fill-9" fill="#2D2D30"></path>
            <path d="M168,38.7836796 C168,38.7836796 162.298441,29.7401425 154.29833,29.0452639 C146.449483,28.3503854 139.306127,35.8812193 139,36.2025909 C139.010004,36.2438323 139.04722,36.2874081 139.057224,36.3282604 C139.758314,37.3822504 145.221374,45.2924273 152.686864,45.9530677 C160.712184,46.6771265 168,38.7836796 168,38.7836796" id="Fill-11" fill="#D8EC84"></path>
            <path d="M157.999746,64.3206942 C157.999746,64.3206942 158.115221,55.9336902 153.423285,52.1800056 C148.825148,48.4885048 141.335786,50.5825791 141.01537,50.6715309 C141.005123,50.7032406 141.010641,50.7477165 141,50.7790143 C141.009459,51.7714861 141.204151,59.3027406 145.577643,62.8142786 C150.273914,66.5976138 157.999746,64.3206942 157.999746,64.3206942" id="Fill-13" fill="#D8EC84"></path>
            <g id="Group-17" transform="translate(81.000000, 0.000000)">
                <mask id="mask-6" fill="white">
                    <use xlink:href="#path-5"></use>
                </mask>
                <g id="Clip-16"></g>
                <path d="M19.382902,0.284494737 C19.382902,0.284494737 8.71113725,-0.356207018 3.64054902,5.56951228 C-1.34415686,11.3755825 0.858588235,21.3045298 0.951921569,21.7290912 C0.991529412,21.7445298 1.04839216,21.7398982 1.088,21.7553368 C2.35192157,21.8012667 11.9538824,21.9853719 16.695451,16.4626 C21.8040784,10.533793 19.382902,0.284494737 19.382902,0.284494737" id="Fill-15" fill="#D8EC84" mask="url(#mask-6)"></path>
            </g>
        </g>
        <g id="flower-2" transform="translate(34.000000, 860.000000) scale(-1, 1) translate(-34.000000, -860.000000) translate(15.000000, 824.000000)" fill-rule="nonzero">
            <path d="M19,72 C18.447,72 18,71.4891429 18,70.8571429 L18,41.1428571 C18,40.5108571 18.447,40 19,40 C19.553,40 20,40.5108571 20,41.1428571 L20,70.8571429 C20,71.4891429 19.553,72 19,72 L19,72 Z" id="Path" fill="#8CC152"></path>
            <g id="Group">
                <path d="M36.5531852,10.2193548 C38.4222222,13.4895484 38.2871111,17.3853935 36.5419259,20.4387097 C38.2871111,23.4920258 38.4222222,27.387871 36.5531852,30.6580645 C34.6728889,33.9407484 31.2737185,35.7563871 27.770963,35.7563871 C26.0145185,38.8108387 22.7493333,40.8774194 19,40.8774194 C15.2506667,40.8774194 11.9854815,38.8108387 10.229037,35.7563871 C6.72740741,35.7563871 3.32711111,33.9282581 1.44681481,30.6580645 C-0.422222222,27.3753806 -0.287111111,23.4920258 1.45807407,20.4387097 C-0.287111111,17.3853935 -0.422222222,13.4895484 1.44681481,10.2193548 C3.32711111,6.94916129 6.72628148,5.12103226 10.229037,5.12103226 C11.9854815,2.05636129 15.2506667,0 19,0 C22.7493333,0 26.0145185,2.05636129 27.770963,5.12103226 C31.2725926,5.12103226 34.6728889,6.94916129 36.5531852,10.2193548 Z M28.728,20.4387097 C29.6962963,18.7354839 29.7976296,16.5780645 28.7516444,14.7612903 C27.7045333,12.9342968 25.8129778,11.9452903 23.8651259,11.9452903 C22.8957037,10.2420645 21.082963,9.08387097 19,9.08387097 C16.917037,9.08387097 15.1042963,10.2420645 14.136,11.9452903 C12.1892741,11.9452903 10.2965926,12.9342968 9.24948148,14.7612903 C8.20237037,16.5780645 8.3037037,18.7354839 9.27312593,20.4387097 C8.30482963,22.1419355 8.2034963,24.2891355 9.24948148,26.116129 C10.2965926,27.9329032 12.1881481,28.932129 14.136,28.932129 C15.1042963,30.6353548 16.9057778,31.7935484 19,31.7935484 C21.082963,31.7935484 22.8957037,30.6353548 23.864,28.932129 C25.8107259,28.932129 27.7034074,27.9317677 28.7505185,26.116129 C29.7976296,24.2891355 29.6962963,22.1419355 28.728,20.4387097 L28.728,20.4387097 Z" id="Shape" fill="#ED5565"></path>
                <path d="M28.7505185,14.7612903 C29.7976296,16.5780645 29.6962963,18.7354839 28.7268741,20.4387097 C29.6951704,22.1419355 29.7965037,24.2891355 28.7505185,26.116129 C27.7034074,27.9329032 25.8118519,28.932129 23.864,28.932129 C22.8957037,30.6353548 21.081837,31.7935484 19,31.7935484 C16.9057778,31.7935484 15.1042963,30.6353548 14.136,28.932129 C12.1892741,28.932129 10.2965926,27.9317677 9.24948148,26.116129 C8.20237037,24.2891355 8.3037037,22.1419355 9.27312593,20.4387097 C8.30482963,18.7354839 8.2034963,16.5780645 9.24948148,14.7612903 C10.2965926,12.9342968 12.1881481,11.9452903 14.136,11.9452903 C15.1042963,10.2420645 16.917037,9.08387097 19,9.08387097 C21.082963,9.08387097 22.8957037,10.2420645 23.864,11.9452903 C25.8118519,11.9452903 27.7034074,12.9342968 28.7505185,14.7612903 Z M22.3777778,20.4387097 C22.3777778,18.5538065 20.869037,17.0322581 19,17.0322581 C17.130963,17.0322581 15.6222222,18.5538065 15.6222222,20.4387097 C15.6222222,22.3236129 17.130963,23.8451613 19,23.8451613 C20.869037,23.8451613 22.3777778,22.3236129 22.3777778,20.4387097 Z" id="Shape" fill="#DA4453"></path>
                <path d="M19,17.0322581 C20.869037,17.0322581 22.3777778,18.5538065 22.3777778,20.4387097 C22.3777778,22.3236129 20.869037,23.8451613 19,23.8451613 C17.130963,23.8451613 15.6222222,22.3236129 15.6222222,20.4387097 C15.6222222,18.5538065 17.130963,17.0322581 19,17.0322581 Z" id="Path" fill="#FFCE54"></path>
                <path d="M35.4497778,41.3089032 C37.2062222,43.0802581 28.4453926,54.7984516 26.6900741,56.568671 C24.9223704,58.3411613 22.0737778,58.3411613 20.3173333,56.568671 C19.4391111,55.684129 19,54.5259355 19,53.3563871 C19,52.1970581 19.4391111,51.0275097 20.3173333,50.1429677 C22.0737778,48.3716129 33.6933333,39.5364129 35.4497778,41.3089032 Z" id="Path" fill="#A0D468"></path>
                <path d="M19,62.2915097 L19,62.9285161 C18.9324444,63.6552258 18.6171852,64.3592258 18.0654815,64.9156129 C16.8044444,66.1873548 14.7563852,66.1873548 13.4942222,64.9156129 C12.2219259,63.643871 6.64859259,55.9452903 7.90962963,54.6724129 C9.16954074,53.400671 16.8033185,59.0213161 18.0654815,60.2930581 C18.6171852,60.8505806 18.9324444,61.5659355 19,62.2915097 Z" id="Path" fill="#A0D468"></path>
            </g>
        </g>
        <g id="flower" transform="translate(65.000000, 853.000000)" fill-rule="nonzero">
            <path d="M27,21.7832523 C24.9066541,23.4452474 18.6742446,25.4770776 13.8167218,34.6180025 C13.91726,24.7469397 11.5749211,13.6029742 7,5 C11.6610556,14.9959458 13.1221727,33.4844257 10.9425002,42.5916505 L12.9257054,43 C13.3561857,41.0352813 13.6046985,39.035033 13.6682671,37.0245783 C17.6298763,30.1412746 19.450223,28.1910951 27,21.7832523" id="Path" fill="#5FA348"></path>
            <path d="M21.1336224,14.7940849 C20.4318653,14.9718144 19.690979,14.9313862 19.0139247,14.6785897 C19.3007736,14.8347061 19.5686507,15.0220842 19.8124179,15.2369612 C21.03491,16.343959 20.7441087,17.6100642 19.9010516,18.4956238 C19.0580933,19.3813764 17.9835215,19.7711847 16.8843458,19.1116946 C17.0716918,20.3488536 16.2781391,21.1478642 15.2478348,21.4896219 C13.9907588,21.9084729 12.6007817,21.6725617 12.0634464,20.1274155 C11.9639435,19.8143145 11.8995186,19.4914683 11.8711598,19.1647626 C11.8290663,19.8688298 11.561782,20.5423105 11.1070529,21.0900684 C10.1788205,22.1687954 8.53074858,22.3083159 7.42613823,21.4018186 C7.42080242,21.3973801 7.41536781,21.3928452 7.410032,21.3885033 C6.85372498,20.9061638 6.58624307,20.1809659 6.70017238,19.4631975 C6.54553286,19.5558252 6.3799253,19.6302169 6.20720333,19.6846357 C4.86673066,20.2060526 3.3472121,19.5676932 2.8131376,18.2587477 C2.81066732,18.252669 2.80819704,18.2466868 2.80572676,18.2406081 C2.57707765,17.5942403 2.67964367,16.8799454 3.08170642,16.3201267 C2.37955407,16.4553052 1.6542799,16.2426474 1.14441414,15.7521064 C0.139405473,14.7428502 0.16144037,13.1294876 1.19372092,12.1468618 C1.30893478,12.0217179 1.44173702,11.9130733 1.5880764,11.8244016 C0.883849015,11.6238047 0.328826534,11.0927391 0.109268059,10.4091272 C-0.302379379,9.05878868 0.484948222,7.63820748 1.86790971,7.23624177 C1.87818607,7.23325066 1.88836362,7.23025956 1.89863999,7.22746143 C2.60197807,7.04973199 3.34444539,7.09016013 4.0232783,7.34295662 C3.73425555,7.18963844 3.4645998,7.00390056 3.21984447,6.7894095 C1.99735237,5.67758737 2.35228218,4.34905498 3.25442839,3.41997963 C3.99393137,2.64026649 5.06346375,2.25508954 6.14307486,2.93860494 C5.97549108,1.6918937 6.84799393,0.873585667 7.95211022,0.507899141 C9.05632532,0.14201964 10.4168567,0.373106508 10.9638754,1.92317354 C11.0601175,2.22566094 11.1245424,2.53702517 11.156162,2.8521524 C11.1967734,2.14866415 11.4623779,1.47527991 11.9153284,0.926846607 C12.8312094,-0.158345046 14.474736,-0.312917556 15.5860655,0.581422395 C15.5915989,0.585860806 15.5971324,0.590395705 15.6024682,0.59473763 C16.1587752,1.07707719 16.4262571,1.80227506 16.3123278,2.52004342 C16.4671649,2.42876652 16.6325749,2.35611165 16.8052968,2.30342963 C18.1432004,1.78288114 19.6599523,2.41979321 20.1930387,3.72613355 C20.1959042,3.73317711 20.1988685,3.74031717 20.2016352,3.74755371 C20.4500466,4.40115807 20.3522235,5.13233815 19.9404773,5.70180566 C20.6425308,5.57000413 21.3661252,5.782276 21.8777695,6.26982587 C22.8788258,7.28294158 22.8501705,8.89649719 21.8136411,9.87507048 C21.6930914,9.99654788 21.5591034,10.1046136 21.414345,10.1975307 C22.1176831,10.399575 22.6720139,10.9300616 22.8931534,11.6128051 C23.301046,12.9698013 22.5053194,14.3927946 21.1154412,14.7910938 C21.1114887,14.7922517 21.1076351,14.793313 21.1036826,14.7944709" id="Path" fill="#FE7058"></path>
            <path d="M34.6189879,25.4003584 C34.0999534,25.5373138 33.552073,25.5066186 33.0507677,25.3126717 C33.261314,25.4337908 33.4584436,25.5776868 33.6387065,25.7417205 C34.3326372,26.301175 34.4507042,27.3283894 33.9024404,28.0364322 C33.8432153,28.1129747 33.7772818,28.1838474 33.7056942,28.248366 C33.1223554,28.8920857 32.2954077,29.2236723 31.4873392,28.736068 C31.6117311,29.5737346 31.0857966,30.3688775 30.2777282,30.5647794 C29.3503469,30.8865904 28.3271321,30.7110216 27.9350771,29.5162544 C27.8593686,29.2790018 27.8112601,29.0334401 27.7917101,28.7846525 C27.7632475,29.3340382 27.5676513,29.8607446 27.2323297,30.2915529 C26.5597698,31.1221811 25.3543755,31.2392921 24.5400778,30.5532443 C24.5274278,30.5425889 24.5148736,30.5317381 24.5025111,30.5206917 C24.0987643,30.1532289 23.9014431,29.604332 23.9765766,29.0576835 C23.8697222,29.1256235 23.7558719,29.1812464 23.6371341,29.2234767 C22.6585778,29.6288686 21.5431711,29.1484006 21.1457494,28.1502195 C21.1394244,28.1341876 21.1331952,28.118058 21.1271577,28.1018306 C20.9438281,27.5974124 21.0171408,27.0330701 21.3232331,26.5949301 C20.8041986,26.7008971 20.2673391,26.5385252 19.8889882,26.1609936 C19.132574,25.4091564 19.1167615,24.1742116 19.8538173,23.4026278 C19.8653174,23.3906038 19.8772007,23.3784822 19.8889882,23.3667515 C19.9800301,23.2745681 20.0792178,23.1912805 20.1854014,23.1179639 C19.6600419,22.9674205 19.2446993,22.5565542 19.0811114,22.0255466 C18.7777024,20.9936399 19.3518412,19.9062082 20.3636518,19.5967144 C20.3743852,19.5933907 20.3852144,19.5902625 20.3958519,19.5871343 C20.9184322,19.4497879 21.4699543,19.4820472 21.9734637,19.6797088 C21.7589883,19.5626955 21.5597503,19.4184084 21.3807332,19.25066 C20.4771187,18.3923671 20.7352943,17.3681831 21.3807332,16.636679 C21.8898969,15.9687159 22.8138281,15.8060508 23.5129339,16.2611025 C23.3886377,15.2857963 24.029285,14.6760954 24.8420493,14.3884011 C25.6570178,14.0173214 26.6125741,14.390454 26.9762624,15.2217664 C27.0128709,15.3054451 27.0425793,15.3921542 27.0651001,15.4809162 C27.1359211,15.714454 27.1838379,15.9546391 27.2084671,16.1978547 C27.238463,15.6540411 27.4320468,15.1330045 27.7630559,14.7056176 C28.437149,13.8762603 29.6428309,13.7614953 30.4558827,14.4491073 C30.4684369,14.4597626 30.4807994,14.4705157 30.4930661,14.4812688 C30.8974837,14.8483406 31.0949967,15.3976285 31.0190007,15.944277 C31.1268134,15.8737954 31.2423887,15.8165107 31.3632348,15.773596 C32.3421744,15.3690839 33.4571978,15.8505296 33.853757,16.8491016 C33.8604653,16.8660133 33.866982,16.8830227 33.8732112,16.9002277 C34.0518449,17.405819 33.9768073,17.9685972 33.6723441,18.4071282 C34.1911869,18.3029208 34.7272798,18.4650971 35.106589,18.8410647 C35.8617573,19.5942705 35.8752699,20.829313 35.1369682,21.599626 C35.1270015,21.6100859 35.1168432,21.6204479 35.106589,21.6306145 C35.0195721,21.7252418 34.9216302,21.808725 34.8149675,21.8794022 C35.3393687,22.0316074 35.7540404,22.4416916 35.9192575,22.9718194 C36.2219956,24.0040194 35.6470902,25.0909624 34.6351837,25.3997719 C34.6233962,25.4033888 34.6115129,25.4068102 34.5997253,25.4102317" id="Path" fill="#FE7058"></path>
            <path d="M28.6861716,17 C28.309876,17.0060166 27.9525833,17.1688648 27.6987174,17.4501391 C27.4840449,17.7251963 27.3581511,18.0605194 27.3382575,18.410583 C27.3212342,18.2544532 27.2898597,18.1004293 27.2445301,17.9504163 C27.1319977,17.498773 26.726703,17.1856109 26.2669732,17.1950369 C26.1122783,17.1975438 25.959167,17.2245181 25.8127858,17.2751575 C25.2652669,17.3968926 24.8954046,17.9158211 24.9536997,18.4807763 C24.7916808,18.3704726 24.6009597,18.3113098 24.4055869,18.3107081 C24.081945,18.3244459 23.7782957,18.4728545 23.5661964,18.7209374 C23.1067635,19.1203368 23.053714,19.8213666 23.4479236,20.286848 C23.4842467,20.3298664 23.523836,20.3698766 23.5661964,20.4066779 C23.6844692,20.512068 23.8135301,20.6043219 23.9513996,20.681735 C23.744249,20.6012134 23.5261123,20.5540837 23.3046106,20.5416494 C23.1790138,20.5388417 23.053714,20.5573928 22.9342535,20.596701 C22.2645028,20.7758942 21.8651465,21.471108 22.0418134,22.149676 C22.0460693,22.1657202 22.0505231,22.181664 22.0553727,22.1975077 C22.1599873,22.5407525 22.4297878,22.8065843 22.7713438,22.9028493 C22.7017658,22.9490766 22.6372353,23.0028245 22.5787423,23.0628899 C22.0879349,23.5541422 22.0829862,24.3553477 22.5678552,24.8526166 C22.5715172,24.8563268 22.5750803,24.8599368 22.5787423,24.863647 C22.7716407,25.0538706 23.0304553,25.1599627 23.299662,25.1587594 C23.3687452,25.1635726 23.4380263,25.1635726 23.5071095,25.1587594 C23.3048086,25.4393317 23.2565097,25.8046373 23.3787415,26.1291306 C23.5524392,26.6232909 24.0215715,26.9468817 24.5390026,26.9294337 C24.6971615,26.9297345 24.8541328,26.90266 25.0030873,26.8493131 C25.081177,26.823843 25.1558027,26.7884455 25.2252818,26.7443241 C25.1745086,27.097396 25.3025797,27.4527743 25.565947,27.6898269 C25.7771555,27.8906798 26.0564575,28.0016853 26.3460527,28 C26.723239,27.9931619 27.0807296,27.8284084 27.3335068,27.5448277 C27.5528311,27.2681661 27.6806053,26.9287317 27.6989154,26.5744565 C27.7100993,26.7346976 27.7416717,26.8926324 27.7926428,27.0446508 C27.902107,27.5041156 28.313835,27.823194 28.780097,27.8100578 C28.9484502,27.8077515 29.1152198,27.7773678 29.2738736,27.7201102 C29.7982328,27.5958682 30.1400858,27.083959 30.0588289,26.5445742 C30.2179776,26.6432458 30.4004839,26.6967932 30.5871471,26.699601 C30.9420645,26.6792449 31.2728324,26.5109817 31.5006684,26.2344204 C31.9307063,25.8471544 31.9695037,25.1800179 31.5872698,24.7443185 C31.5472847,24.6986929 31.5034396,24.6566772 31.4561305,24.6186726 C31.3400351,24.5127811 31.2123599,24.4204269 31.075876,24.3436154 C31.2847092,24.4137084 31.5027468,24.4524149 31.7226649,24.4586321 C31.8485587,24.4590332 31.9735616,24.4387774 32.0930221,24.3985667 C32.7544591,24.2096467 33.1394642,23.5134301 32.952999,22.8432853 C32.9511185,22.8364666 32.9490401,22.8295475 32.9471596,22.822829 C32.8410605,22.4814894 32.5715568,22.2178637 32.2311885,22.1225012 C32.3003707,22.0756723 32.3634165,22.0203199 32.4188414,21.9574468 C32.9083622,21.4688017 32.9142016,20.6706044 32.4318069,20.1747394 C32.4274521,20.1703272 32.4231962,20.1659151 32.4188414,20.1616032 C32.2265368,19.9702766 31.9674253,19.8642848 31.6979217,19.8664909 C31.6288385,19.8616776 31.5595573,19.8616776 31.4904742,19.8664909 C31.6869357,19.5836121 31.7348386,19.2213148 31.6188422,18.8961196 C31.4436599,18.4003549 30.973241,18.0750594 30.4536324,18.0908028 C30.297255,18.0905019 30.1418673,18.1175765 29.9944964,18.1709233 C29.9159118,18.1973962 29.8411872,18.234398 29.7723019,18.2809261 C29.8210956,17.9279545 29.6934204,17.5734787 29.4316366,17.3354234 C29.2188446,17.1338685 28.9378601,17.0227627 28.6466813,17.0252696" id="Path" fill="#F46A55"></path>
            <path d="M13.106827,4.01033373 C12.5926231,4.01700216 12.104197,4.24019842 11.7581762,4.62667314 C11.4670901,5.00206651 11.2988104,5.46052104 11.2765083,5.93770602 C11.2508271,5.73118083 11.2039057,5.5278918 11.1369028,5.33117312 C10.9883186,4.69914328 10.4281588,4.25598691 9.78834854,4.26461664 C9.57855412,4.26706827 9.37040098,4.30335237 9.17190244,4.3721941 C8.4541796,4.62176989 7.8811792,5.17936828 7.99664819,6.02086526 C7.77478552,5.87219851 7.5158492,5.79090251 7.25005811,5.78599925 C6.81395991,5.79531544 6.40026037,5.98428697 6.10376766,6.30947097 C5.52091956,6.95522993 5.28978848,7.85536987 6.10376766,8.61360954 C6.26442017,8.75864789 6.44052005,8.88495579 6.62878471,8.99037582 C6.34127078,8.89191841 6.04101277,8.8373942 5.73766529,8.82896059 C5.56600654,8.82709736 5.39531324,8.85357494 5.23195744,8.90731464 C4.32741813,9.17287504 3.80597328,10.1331289 4.06751634,11.0519012 C4.06877144,11.0562161 4.06992999,11.0604329 4.07118509,11.0647478 C4.21127331,11.5337933 4.57264492,11.9008512 5.03442436,12.0431437 C4.94029202,12.1069841 4.853111,12.180631 4.77442603,12.2632999 C4.11057585,12.9392629 4.11057585,14.0334738 4.77442603,14.7094368 C5.11127496,15.0367783 5.58299863,15.1788746 6.04110932,15.0911063 C5.76904274,15.477483 5.70223292,15.9756539 5.86288543,16.4217522 C6.08552047,17.1087966 6.72088958,17.5700951 7.43310929,17.5615634 C7.65738561,17.5566601 7.87895864,17.5118444 8.08817378,17.4294696 C8.19533982,17.3946565 8.29748547,17.3452317 8.39161781,17.2827642 C8.32857328,17.7695596 8.50930736,18.2561588 8.87328571,18.5791854 C9.16282712,18.8515123 9.54321829,19.0018461 9.93780172,19 C10.4543227,18.9929222 10.9445832,18.7678627 11.2911833,18.3787402 C11.5831384,17.9981494 11.751418,17.5348897 11.7728512,17.0529976 C11.7894571,17.2724674 11.8314546,17.4891913 11.8980713,17.6987565 C12.0614271,18.3307864 12.6324966,18.7648227 13.2755894,18.7457 C13.5133822,18.7428561 13.7489544,18.7014726 13.9740031,18.6234127 C14.6891192,18.4488568 15.1536019,17.7474949 15.0433464,17.0090644 C15.2575819,17.1486111 15.506574,17.2233367 15.7610692,17.2243174 C16.2357858,17.1865623 16.6752631,16.9554227 16.9796726,16.5834617 C17.5669618,16.0346891 17.6049044,15.1062084 17.0646331,14.5096781 C17.0202219,14.4605475 16.9724316,14.414653 16.9218415,14.3721908 C16.7624441,14.2277408 16.5880821,14.1014329 16.4016518,13.9954245 C16.6860763,14.0923129 16.9832448,14.14517 17.2831166,14.1519365 C17.4467621,14.15125 17.6090558,14.1246744 17.7647845,14.0735824 C18.6719306,13.8071394 19.1946305,12.8441398 18.9322185,11.9226216 C18.9316393,11.9204642 18.9309634,11.9183067 18.9303842,11.9159532 C18.7902959,11.4469076 18.4289243,11.0798498 17.9671449,10.9375573 C18.0624358,10.875384 18.1497134,10.8013448 18.2271432,10.717401 C18.8920554,10.0439877 18.8937932,8.95056137 18.2310051,8.27508867 C18.22975,8.27381383 18.2284949,8.27253898 18.2271432,8.27116607 C17.9693655,8.01452959 17.6246963,7.86752994 17.263904,7.86017506 C17.1685165,7.86046925 17.0732256,7.87027577 16.9797691,7.8895946 C17.2518357,7.50321794 17.3186455,7.00504702 17.157993,6.55894869 C16.9198141,5.88033791 16.2775902,5.43551443 15.5686531,5.45816748 C15.3538382,5.45806942 15.1406647,5.49445158 14.9377251,5.56574494 C14.8303659,5.60232324 14.7283168,5.65331711 14.634281,5.71735365 C14.7037941,5.22987183 14.521805,4.74023258 14.1526131,4.42093248 C13.8650992,4.14556556 13.4832598,3.99483944 13.0880971,4" id="Path" fill="#F46A55"></path>
            <path d="M25.5341927,20.6408744 C24.7827259,21.4500269 24.8298087,22.7149303 25.6393326,23.4660524 C26.4488565,24.2171745 27.7143404,24.1701132 28.4658073,23.3609607 C29.2172741,22.5518082 29.1701913,21.2869048 28.3606674,20.5357827 C28.3604019,20.5355174 28.3601364,20.535252 28.3597824,20.5349866 C27.5531791,19.7842183 26.2904386,19.8290681 25.5394143,20.6353013 C25.5377328,20.637159 25.5358742,20.6389282 25.5341927,20.6408744 Z" id="Path" fill="#985B3F"></path>
            <path d="M11.8982643,37.24052 C11.8982643,37.24052 11.9263086,37.0777087 11.9589333,36.7951888 C11.9985692,36.4070721 12.0095999,36.0164594 11.9916516,35.6266146 C11.9622986,34.40073 11.6421271,33.2007647 11.0589943,32.1305877 C10.2561818,30.7236523 8.95147118,29.6931221 7.4215655,29.2571027 C5.69142408,28.7494694 3.38301085,28.9218804 1,30.4256769 L1.60154852,31.5414527 C1.99800031,32.2741995 2.56225002,33.3229692 3.16379853,34.6590586 C3.95698256,36.3272024 5.24533402,37.6939149 6.84329368,38.5620178 C7.58805468,38.9567584 8.43835543,39.0897145 9.26360335,38.9403428 C10.3052592,38.7002538 11.2353925,38.1001751 11.8982643,37.24052 L11.8982643,37.24052 Z" id="Path" fill="#65B54E"></path>
            <path d="M3,30.5045287 C4.98712085,30.5744303 6.91255809,31.2376122 8.54556576,32.4146495 C8.23771529,31.8791952 8.04462284,31.2812025 7.97915495,30.6612183 C7.95446258,30.4397323 7.97035652,30.2153009 8.02636373,30 C8.17669391,30.9490716 8.4848282,31.8639779 8.93723783,32.7035828 C10.0210531,33.5448567 10.9622014,34.5678552 11.7217993,35.7303624 C12.2269995,36.4929969 12.6436477,37.3151264 12.9630402,38.1792754 C13.0585931,38.4403266 12.9638917,38.7352486 12.736457,38.884575 C12.5084547,39.0695394 12.1793177,39.0277162 12.0010785,38.7913074 C11.9463012,38.7186568 11.9103506,38.6328506 11.8963488,38.541841 C11.6664543,37.352728 11.1933258,36.228706 10.5086565,35.2455671 C9.50251336,34.8021041 8.39173513,34.6792854 7.31823197,34.8929173 C6.77991938,34.9825524 6.25390567,35.1387511 5.75135444,35.3581755 C7.80432162,34.1337189 9.20147458,34.2268884 9.8811297,34.4422875 C8.95095582,33.3997519 7.85200344,32.5344248 6.63403572,31.8856749 C6.09761526,31.7874984 5.5456793,31.8382556 5.03414043,32.0325468 C4.82628932,32.1122661 4.63319688,32.2282124 4.46299928,32.3753789 C4.90178554,31.9121825 5.48276579,31.6227584 6.10546763,31.557471 C5.88834506,31.4497715 5.66658676,31.3516932 5.45892488,31.2636289 C4.66507937,30.9282582 3.84152733,30.6740794 3,30.5045287 Z" id="Path" fill="#5FA348"></path>
            <path d="M4.06759677,31.9393428 L3.93240323,32.0606572 C3.97420968,32.0167817 4.01940323,31.9762138 4.06759677,31.9393428 Z" id="Path" fill="#819B43"></path>
            <path d="M8.93172318,9.12054611 C7.61855925,10.5393053 7.70372965,12.7543718 9.1222739,14.0680092 C10.5406257,15.3815503 12.755056,15.2963555 14.0683162,13.8774037 C15.3784005,12.4620138 15.2969834,10.2532046 13.8864269,8.93802695 C12.4687488,7.6197688 10.2510463,7.70082425 8.93326299,9.11900587 C8.93268556,9.11939093 8.93230061,9.11996852 8.93172318,9.12054611 Z" id="Path" fill="#985B3F"></path>
            <g id="Group" transform="translate(8.000000, 8.000000)" fill="#DC8744">
                <ellipse id="Oval" cx="19.3637581" cy="12.7747317" rx="1" ry="1"></ellipse>
                <path d="M18.3599581,14.7945366 C18.2381581,14.7945366 18.1406791,14.9453659 18.1406791,15.1303415 C18.1406791,15.3153171 18.2380605,15.4710244 18.3599581,15.4710244 C18.4817581,15.4710244 18.5792373,15.3201951 18.5792373,15.1303415 C18.5793349,14.9405854 18.4817581,14.7945366 18.3599581,14.7945366 Z" id="Path"></path>
                <path d="M17.9410326,13.8941463 C17.8192326,13.8941463 17.7217535,14.0449756 17.7217535,14.2348293 C17.7217535,14.4246829 17.8191349,14.5755122 17.9410326,14.5755122 C18.0629302,14.5755122 18.1651953,14.4198049 18.1651953,14.2348293 C18.1651953,14.0498537 18.0432977,13.8941463 17.9410326,13.8941463 Z" id="Path"></path>
                <path d="M18.501293,12.9792195 C18.4330186,12.8770732 18.2527116,12.8868293 18.0968233,12.9792195 C17.9409349,13.0716098 17.8775442,13.2517073 17.9458186,13.3540488 C18.014093,13.4561951 18.1990884,13.446439 18.3502884,13.3540488 C18.501293,13.2614634 18.5695674,13.0764878 18.501293,12.9792195 Z" id="Path"></path>
                <path d="M19.1104884,13.626439 C19.042214,13.5242927 18.861907,13.5340488 18.7060186,13.626439 C18.5501302,13.7188293 18.4867395,13.9038049 18.5598977,14.0012683 C18.6330558,14.0985366 18.8084791,14.0936585 18.9643674,14.0012683 C19.1202558,13.9086829 19.1834512,13.7238049 19.1104884,13.626439 Z" id="Path"></path>
                <path d="M18.7205721,12.2441951 C18.6522977,12.1420488 18.4719907,12.1469268 18.3161023,12.2441951 C18.160214,12.3414634 18.0968233,12.5166829 18.1650977,12.6190244 C18.2333721,12.7211707 18.4183674,12.7114146 18.5695674,12.6190244 C18.7205721,12.526439 18.7936326,12.3609756 18.7205721,12.2441951 Z" id="Path"></path>
                <path d="M20.5185628,13.1446829 C20.5185628,13.0230244 20.3869953,12.9110244 20.1970186,12.8963902 C20.0069442,12.8817561 19.8510558,12.9645854 19.8412884,13.0862439 C19.8315209,13.2079024 19.9728558,13.3199024 20.1628326,13.3345366 C20.352907,13.3489756 20.5087953,13.2663415 20.5185628,13.1446829 Z" id="Path"></path>
                <path d="M17.4536372,13.8941463 C17.5754372,13.8941463 17.6778,13.7481951 17.6826837,13.5632195 C17.6875674,13.3782439 17.5950698,13.2225366 17.4730744,13.2176585 C17.3512744,13.2127805 17.2489116,13.3636098 17.2440279,13.5485854 C17.2393395,13.7334634 17.3123023,13.8892683 17.4536372,13.8941463 Z" id="Path"></path>
                <path d="M19.4028279,13.8211707 C19.4028279,13.9428293 19.5489488,14.0450732 19.7341395,14.0499512 C19.9193302,14.0548293 20.0752186,13.962439 20.0801023,13.8406829 C20.084986,13.7190244 19.9339814,13.6167805 19.7487907,13.6119024 C19.5636,13.6070244 19.4028279,13.6896585 19.4028279,13.8211707 Z" id="Path"></path>
                <path d="M20.3139349,14.0303415 C20.3139349,14.152 20.4600558,14.259122 20.6501302,14.264 C20.8402047,14.268878 20.9912093,14.1716098 20.996093,14.0498537 C21.0009767,13.9281951 20.8645256,13.8210732 20.6598977,13.8210732 C20.4553674,13.8211707 20.3188186,13.9086829 20.3139349,14.0303415 L20.3139349,14.0303415 Z" id="Path"></path>
                <path d="M20.0654512,14.4538537 C19.9485349,14.4245854 19.8168698,14.551122 19.7731116,14.7312195 C19.7292558,14.9113171 19.7731116,15.0816585 19.9046791,15.1109268 C20.0362465,15.1401951 20.1532605,15.0185366 20.2019023,14.838439 C20.2505442,14.6583415 20.1872512,14.483122 20.0654512,14.4538537 L20.0654512,14.4538537 Z" id="Path"></path>
                <path d="M20.9814419,14.8577561 C20.9472558,14.7360976 20.7718326,14.6874146 20.5916233,14.7360976 C20.4113163,14.7847805 20.2944,14.9259512 20.328586,15.0427317 C20.3626744,15.1595122 20.5380977,15.2130732 20.7184047,15.1643902 C20.8987116,15.1158049 21.0156279,14.9746341 20.9814419,14.8577561 Z" id="Path"></path>
                <path d="M17.8629907,15.1449756 C17.9554884,15.0670244 17.9312651,14.887122 17.8093674,14.7458537 C17.6874698,14.6045854 17.5170279,14.551122 17.4244326,14.6290732 C17.3319349,14.7070244 17.3512744,14.8869268 17.4731721,15.0281951 C17.5950698,15.1693659 17.770493,15.2228293 17.8629907,15.1449756 L17.8629907,15.1449756 Z" id="Path"></path>
                <path d="M20.3090512,15.4662439 C20.2748651,15.3494634 20.1043256,15.3007805 19.9241163,15.3494634 C19.7438093,15.3981463 19.626893,15.5393171 19.6610791,15.6560976 C19.6952651,15.772878 19.8658047,15.826439 20.046014,15.772878 C20.2262233,15.7192195 20.3431395,15.5829268 20.3090512,15.4662439 Z" id="Path"></path>
                <path d="M18.740107,14.5999024 C18.740107,14.721561 18.8862279,14.8286829 19.0714186,14.833561 C19.2566093,14.838439 19.4124977,14.7411707 19.4173814,14.6194146 C19.4222651,14.4977561 19.2712605,14.3955122 19.0860698,14.3906341 C18.9008791,14.3856585 18.740107,14.4782439 18.740107,14.5999024 L18.740107,14.5999024 Z" id="Path"></path>
                <path d="M18.6037535,15.7679024 C18.6037535,15.889561 18.7498744,15.9918049 18.9350651,15.9966829 C19.1202558,16.001561 19.2810279,15.9091707 19.2810279,15.7825366 C19.2810279,15.656 19.134907,15.5586341 18.9497163,15.5537561 C18.7645256,15.548878 18.6085395,15.6657561 18.6037535,15.7679024 Z" id="Path"></path>
                <path d="M3.23038605,0.417268293 C3.04519535,0.417268293 2.89907442,0.64604878 2.89907442,0.904 C2.89907442,1.16185366 3.04519535,1.41502439 3.23038605,1.41502439 C3.41557674,1.41502439 3.5665814,1.1862439 3.5665814,0.904 C3.5665814,0.621756098 3.41557674,0.417268293 3.23038605,0.417268293 Z" id="Path"></path>
                <path d="M1.71496744,3.9604878 C1.53466047,3.9604878 1.38365581,4.18926829 1.38365581,4.44721951 C1.38365581,4.70507317 1.53466047,4.9582439 1.71496744,4.9582439 C1.89527442,4.9582439 2.05116279,4.72946341 2.05116279,4.44721951 C2.05116279,4.16497561 1.90015814,3.9604878 1.71496744,3.9604878 Z" id="Path"></path>
                <ellipse id="Oval" cx="1.04736279" cy="3.13317073" rx="1" ry="1"></ellipse>
                <path d="M1.92926512,1.23492683 C1.82211628,1.08409756 1.54911628,1.09385366 1.32026512,1.23492683 C1.0912186,1.376 0.984069767,1.65356098 1.0912186,1.80439024 C1.19836744,1.95521951 1.47136744,1.94546341 1.7002186,1.78 C1.92906977,1.61453659 2.03651163,1.38585366 1.92926512,1.23492683 Z" id="Path"></path>
                <path d="M2.83558605,2.21317073 C2.73332093,2.06234146 2.45543721,2.07209756 2.22658605,2.21317073 C1.99753953,2.3542439 1.89527442,2.63180488 1.99753953,2.78263415 C2.09980465,2.93346341 2.37768837,2.92370732 2.61142326,2.78263415 C2.84535349,2.64156098 2.95738605,2.36419512 2.83558605,2.21317073 L2.83558605,2.21317073 Z" id="Path"></path>
                <path d="M2.26546047,0.125365854 C2.15831163,-0.0254634146 1.88531163,-0.0157073171 1.65157674,0.125365854 C1.41764651,0.266439024 1.32026512,0.544 1.42253023,0.694829268 C1.52479535,0.845658537 1.80267907,0.835902439 2.03641395,0.694829268 C2.27034419,0.553560976 2.34838605,0.276195122 2.26546047,0.125365854 Z" id="Path"></path>
                <path d="M4.97465581,1.48321951 C4.97465581,1.30312195 4.77481395,1.13278049 4.48735814,1.10839024 C4.19990233,1.084 3.96597209,1.21541463 3.94643721,1.3955122 C3.92690233,1.57560976 4.14627907,1.75082927 4.43373488,1.77521951 C4.72138605,1.79960976 4.96010233,1.65356098 4.97465581,1.48321951 Z" id="Path"></path>
                <path d="M0.316465116,2.62692683 C0.501655814,2.62692683 0.657544186,2.40790244 0.662427907,2.14019512 C0.667311628,1.87258537 0.530860465,1.62429268 0.345767442,1.61941463 C0.160674419,1.61453659 0.00468837209,1.83843902 -0.000195348837,2.10614634 C-0.00517674419,2.37395122 0.131274419,2.62692683 0.316465116,2.62692683 L0.316465116,2.62692683 Z" id="Path"></path>
                <path d="M3.32288372,2.49073171 C3.32288372,2.67570732 3.54216279,2.83141463 3.8101814,2.84117073 C4.07810233,2.85092683 4.32668372,2.70487805 4.33156744,2.52 C4.33645116,2.33502439 4.11228837,2.18419512 3.84426977,2.17443902 C3.57634884,2.16458537 3.32288372,2.31063415 3.32288372,2.49073171 Z" id="Path"></path>
                <path d="M4.66776279,2.82653659 C4.66776279,3.0115122 4.88704186,3.16721951 5.15506047,3.17209756 C5.4229814,3.17697561 5.67156279,3.04068293 5.67644651,2.85580488 C5.68133023,2.67092683 5.45716744,2.51512195 5.18914884,2.50536585 C4.92113023,2.49560976 4.67264651,2.62692683 4.66776279,2.82653659 Z" id="Path"></path>
                <path d="M4.2973814,3.46409756 C4.11707442,3.42029268 3.91723256,3.60517073 3.84915349,3.88273171 C3.78087907,4.16009756 3.84915349,4.41326829 4.04899535,4.45707317 C4.24883721,4.50087805 4.42914419,4.316 4.49722326,4.03843902 C4.56549767,3.76097561 4.47280465,3.50790244 4.2973814,3.46409756 Z" id="Path"></path>
                <path d="M5.67146512,4.08702439 C5.62272558,3.91180488 5.3595907,3.83404878 5.08668837,3.91180488 C4.81388372,3.9897561 4.63846047,4.19892683 4.68710233,4.37414634 C4.73584186,4.54936585 5.00376279,4.632 5.27187907,4.54936585 C5.53999535,4.46673171 5.72518605,4.24760976 5.67146512,4.08702439 L5.67146512,4.08702439 Z" id="Path"></path>
                <path d="M0.964534884,4.50565854 C1.10577209,4.38887805 1.07168372,4.11629268 0.886493023,3.9022439 C0.701302326,3.68809756 0.443148837,3.60536585 0.301716279,3.72702439 C0.16047907,3.84868293 0.194567442,4.11639024 0.37975814,4.33043902 C0.564851163,4.54458537 0.8232,4.62731707 0.964534884,4.50565854 L0.964534884,4.50565854 Z" id="Path"></path>
                <path d="M4.66287907,4.99229268 C4.60925581,4.81707317 4.3462186,4.73912195 4.07810233,4.81707317 C3.8101814,4.89502439 3.6249907,5.10419512 3.67851628,5.30380488 C3.73213953,5.50341463 3.9903907,5.56165854 4.26329302,5.47902439 C4.53619535,5.39639024 4.7116186,5.1675122 4.66287907,4.99229268 Z" id="Path"></path>
                <path d="M2.28499535,3.688 C2.28499535,3.86809756 2.50915814,4.02380488 2.77229302,4.03356098 C3.03542791,4.04331707 3.3229814,3.89726829 3.3229814,3.71726829 C3.3229814,3.53717073 3.0988186,3.37658537 2.83568372,3.36682927 C2.57254884,3.35707317 2.28987907,3.50302439 2.28499535,3.688 Z" id="Path"></path>
                <path d="M2.08515349,5.47414634 C2.08515349,5.6542439 2.30443256,5.80995122 2.57245116,5.81970732 C2.84037209,5.82946341 3.08895349,5.68341463 3.09383721,5.50341463 C3.09872093,5.32331707 2.87455814,5.16273171 2.60653953,5.15297561 C2.3386186,5.14321951 2.09003721,5.28917073 2.08515349,5.47414634 Z" id="Path"></path>
            </g>
        </g>
        <g id="Group-42-Copy-2" transform="translate(251.500000, 743.500000) rotate(-4.000000) translate(-251.500000, -743.500000) translate(232.000000, 722.000000)">
            <path d="M6.46706406,0.404925569 C5.8436757,0.690134899 5.25042698,1.13264775 4.707411,1.75309408 C3.76554703,2.828947 3.22805666,3.86869747 3,4.85996751 C6.96235893,3.47982254 13.1816751,6.89253527 15.7993034,12 L18,10.8555524 C16.9621915,4.33957653 10.9176853,-1.63022094 6.46706406,0.404925569" id="Fill-1" fill="#C2E3F5"></path>
            <path d="M19.962707,42.055559 C19.4884122,40.6031188 19.1680708,39.1340112 18.99813,37.6387121 C18.8791122,36.5905741 16.8871927,36.9267783 17.0050263,37.9639635 C17.1749671,39.4592626 17.4959006,40.9283702 17.9696032,42.3798579 C18.3006029,43.3960899 20.2954831,43.0751244 19.962707,42.055559" id="Fill-3" fill="#000000"></path>
            <path d="M25.9144798,39.7167219 C25.2457468,38.2967913 24.5553313,36.8845416 23.8438039,35.4804847 C23.3217129,34.4502286 21.5745622,35.2464753 22.0960827,36.2762194 C22.8076101,37.67874 23.497455,39.0915018 24.166188,40.5114324 C24.6574671,41.555002 26.4034766,40.7551709 25.9144798,39.7167219" id="Fill-5" fill="#000000"></path>
            <path d="M32.8068372,35.6636254 C31.9461558,34.6430469 31.193701,33.5631644 30.5359445,32.4055894 C30.0335305,31.5220074 28.601394,32.2299763 29.1061405,33.1190749 C29.8329381,34.3966369 30.6716943,35.5992646 31.6210095,36.7264981 C32.279699,37.5075625 33.4659932,36.4460689 32.8068372,35.6636254" id="Fill-7" fill="#000000"></path>
            <path d="M37.7461467,32.4299726 C36.6789498,31.2817414 35.5458897,30.2150936 34.3544632,29.2057747 C33.4436243,28.4334886 32.451929,30.0287748 33.3584841,30.7960997 C34.425681,31.7012344 35.4296922,32.6758252 36.3849753,33.7038863 C37.2010356,34.581459 38.5680971,33.3136089 37.7461467,32.4299726" id="Fill-9" fill="#000000"></path>
            <path d="M21.0681018,37 C22.2053676,36.7623978 23.3310595,36.3564033 24.4124685,35.7634877 L27,34.3444142 C26.0066536,33.3013624 25.0847638,32.1776567 24.2167179,31 C22.2003355,31.9880109 20.108974,32.8043597 18,33.440327 C18.9601342,34.6980926 19.9836735,35.8904632 21.0681018,37" id="Fill-11" fill="#E0BF3B"></path>
            <path d="M15.2180008,12 L12.9971202,13.1703418 C11.8687068,13.7651139 10.8661046,14.5185594 10,15.3902517 C10.9078797,22.1485208 13.8010478,28.7162808 17.9994448,34 C20.0352521,33.4107865 22.0530863,32.6532984 24,31.7371371 C19.7063946,26.1391033 16.9375802,19.0498438 15.2180008,12" id="Fill-13" fill="#FFE05C"></path>
            <path d="M21,36.8035057 C19.8782468,35.9296635 18.8194784,34.9905835 17.8262974,34 C15.5453126,34.5236186 13.2466295,34.8927269 11,35.1008867 C13.8957368,36.7159498 17.5040862,37.3601724 21,36.8035057" id="Fill-15" fill="#000000"></path>
            <path d="M9.85241425,15 C5.9839437,18.84342 4.80099024,24.9933997 7.35292413,30.1639927 C8.34886111,32.1811535 9.79997047,33.8109261 11.5118145,35 C13.6476614,34.7542648 15.8319941,34.3171202 18,33.6977051 C13.7233586,28.389013 10.7766121,21.7897035 9.85241425,15" id="Fill-17" fill="#000000"></path>
            <path d="M24,31.8440347 C24.8285684,32.9553335 25.7080222,34.0157214 26.6551632,35 L31.3692661,32.4415957 C31.9467677,32.1284161 32.4906657,31.7704966 33,31.3765795 C32.0408577,30.2879077 31.1254,29.1601528 30.2507467,28 C28.3209409,29.4903027 26.2087156,30.773876 24,31.8440347" id="Fill-19" fill="#000000"></path>
            <path d="M31,28.2103569 C26.4237942,22.6207094 23.0169775,16.2015388 21.5491961,9 C21.1427653,9.15363418 20.7419936,9.32856419 20.3448232,9.52732524 L15,12.1958952 C16.8212219,19.270166 19.7547267,26.3829722 24.3010932,32 C26.6681672,30.9453495 28.9318328,29.6792619 31,28.2103569" id="Fill-21" fill="#000000"></path>
            <path d="M37.7703641,15.0512978 L37.7703641,15.0512978 C34.8328732,9.12037074 27.9436517,6.50910554 22,8.85661678 C23.4099561,16.0330486 26.68141,22.4298399 31.0752957,28 C34.3645346,25.5777079 37.1399843,22.6051706 39,19.1278627 C38.8177036,17.7418913 38.4205051,16.36552 37.7703641,15.0512978" id="Fill-23" fill="#FFE05C"></path>
            <path d="M31,27.7340104 C31.8956487,28.8561658 32.8340879,29.946487 33.8167931,31 C37.5946503,28.2393782 39.495629,23.5692021 38.888693,19 C37.0368987,22.423171 34.2742084,25.3494301 31,27.7340104" id="Fill-25" fill="#E0BF3B"></path>
            <path d="M32.8918566,15.5487297 C33.1413067,16.041083 32.9445859,16.6421271 32.4521756,16.8919537 C31.9585484,17.1413749 31.3578402,16.9442713 31.1079846,16.4519181 C30.8585345,15.9591593 31.0560665,15.3581152 31.5480713,15.1082885 C32.040076,14.8584618 32.6424066,15.0555653 32.8918566,15.5487297" id="Fill-27" fill="#000000"></path>
            <path d="M36.6753514,19.6450466 C37.4242281,21.1220412 36.8336379,22.9275451 35.3550865,23.6759028 C33.877573,24.4237416 32.0731071,23.8336703 31.3242303,22.3556378 C30.5758726,20.8776053 31.1669818,19.0731394 32.6444953,18.3247817 C34.1220088,17.575386 35.9275127,18.1670142 36.6753514,19.6450466" id="Fill-29" fill="#F7B8B8"></path>
            <g id="Group-33" transform="translate(0.000000, 4.000000)">
                <mask id="mask-8" fill="white">
                    <use xlink:href="#path-7"></use>
                </mask>
                <g id="Clip-32"></g>
                <path d="M3.10465,0.6575 C2.00715,1.1465 1.11665,2.038 0.57915,3.4055 C-1.99435,9.9525 4.60615,12.132 8.63765,12.634 C8.99915,12.1695 9.39415,11.7285 9.82265,11.314 C9.88515,11.764 9.95715,12.213 10.03815,12.6605 C9.95715,12.213 9.88515,11.764 9.82265,11.314 C10.43565,10.7205 11.11565,10.182 11.85915,9.7125 C11.01365,9.5355 10.23865,9.3035 9.64815,8.9995 C6.75965,7.5125 2.60265,4.395 3.52715,0.4925 C3.38315,0.5415 3.24165,0.596 3.10465,0.6575" id="Fill-31" fill="#C2E3F5" mask="url(#mask-8)"></path>
            </g>
            <path d="M3.13270557,4.31352639 C2.19904151,8.41346817 6.39674258,11.6886939 9.31387467,13.2509267 C9.91073293,13.5703072 10.694425,13.8140449 11.547296,14 C11.8871316,13.7762235 12.240096,13.5671554 12.6066942,13.3743715 L14.9143441,12.1583093 L16,11.586261 C13.3686731,6.3842465 7.11681015,2.90835736 3.13270557,4.31352639" id="Fill-34" fill="#A6D9F2"></path>
            <path d="M15.1262229,12 L12.9444047,13.2316528 C12.5989024,13.4268241 12.2653305,13.6379494 11.9436889,13.8644969 C11.2350274,14.3643906 10.5850632,14.9366092 10,15.5678579 C10.0601288,16.0464795 10.1283703,16.5240374 10.2056788,17 C12.11644,16.8479047 14.5578621,16.0305254 16,15.4912785 C15.6821761,14.3303552 15.3915533,13.1646458 15.1262229,12" id="Fill-36" fill="#C2D6AB"></path>
            <path d="M9.84576937,16 C9.54016423,16.3022281 9.2581221,16.6245317 9,16.9632607 C9.02749018,16.9669108 9.05390932,16.9701959 9.08104248,16.973481 C9.35665834,17.0070619 9.66761871,17.0070619 10,16.9829712 C9.94216351,16.6559225 9.8907533,16.3285088 9.84576937,16" id="Fill-38" fill="#4F7082"></path>
            <path d="M15.9779194,12 L15,12.5691886 C15.2522194,13.7138377 15.5303893,14.8595322 15.8335989,16 C16.5438197,15.7261205 17,15.5248922 17,15.5248922 C16.8433872,14.2924343 16.4850899,13.1064942 15.9779194,12" id="Fill-40" fill="#4F7082"></path>
        </g>
        <g id="flower-2" transform="translate(291.000000, 825.000000)">
            <path d="M35,73 C34.447,73 34,72.5210714 34,71.9285714 L34,44.0714286 C34,43.4789286 34.447,43 35,43 C35.553,43 36,43.4789286 36,44.0714286 L36,71.9285714 C36,72.5210714 35.553,73 35,73 L35,73 Z" id="Path" fill="#8CC152" fill-rule="nonzero"></path>
            <g id="Group" transform="translate(17.000000, 6.000000)" fill-rule="nonzero">
                <path d="M34.6293333,9.6 C36.4,12.672 36.272,16.3317333 34.6186667,19.2 C36.272,22.0682667 36.4,25.728 34.6293333,28.8 C32.848,31.8837333 29.6277333,33.5893333 26.3093333,33.5893333 C24.6453333,36.4586667 21.552,38.4 18,38.4 C14.448,38.4 11.3546667,36.4586667 9.69066667,33.5893333 C6.37333333,33.5893333 3.152,31.872 1.37066667,28.8 C-0.4,25.7162667 -0.272,22.0682667 1.38133333,19.2 C-0.272,16.3317333 -0.4,12.672 1.37066667,9.6 C3.152,6.528 6.37226667,4.81066667 9.69066667,4.81066667 C11.3546667,1.93173333 14.448,0 18,0 C21.552,0 24.6453333,1.93173333 26.3093333,4.81066667 C29.6266667,4.81066667 32.848,6.528 34.6293333,9.6 Z M27.216,19.2 C28.1333333,17.6 28.2293333,15.5733333 27.2384,13.8666667 C26.2464,12.1504 24.4544,11.2213333 22.6090667,11.2213333 C21.6906667,9.62133333 19.9733333,8.53333333 18,8.53333333 C16.0266667,8.53333333 14.3093333,9.62133333 13.392,11.2213333 C11.5477333,11.2213333 9.75466667,12.1504 8.76266667,13.8666667 C7.77066667,15.5733333 7.86666667,17.6 8.78506667,19.2 C7.86773333,20.8 7.77173333,22.8170667 8.76266667,24.5333333 C9.75466667,26.24 11.5466667,27.1786667 13.392,27.1786667 C14.3093333,28.7786667 16.016,29.8666667 18,29.8666667 C19.9733333,29.8666667 21.6906667,28.7786667 22.608,27.1786667 C24.4522667,27.1786667 26.2453333,26.2389333 27.2373333,24.5333333 C28.2293333,22.8170667 28.1333333,20.8 27.216,19.2 L27.216,19.2 Z" id="Shape" fill="#ED5565"></path>
                <path d="M27.2373333,13.8666667 C28.2293333,15.5733333 28.1333333,17.6 27.2149333,19.2 C28.1322667,20.8 28.2282667,22.8170667 27.2373333,24.5333333 C26.2453333,26.24 24.4533333,27.1786667 22.608,27.1786667 C21.6906667,28.7786667 19.9722667,29.8666667 18,29.8666667 C16.016,29.8666667 14.3093333,28.7786667 13.392,27.1786667 C11.5477333,27.1786667 9.75466667,26.2389333 8.76266667,24.5333333 C7.77066667,22.8170667 7.86666667,20.8 8.78506667,19.2 C7.86773333,17.6 7.77173333,15.5733333 8.76266667,13.8666667 C9.75466667,12.1504 11.5466667,11.2213333 13.392,11.2213333 C14.3093333,9.62133333 16.0266667,8.53333333 18,8.53333333 C19.9733333,8.53333333 21.6906667,9.62133333 22.608,11.2213333 C24.4533333,11.2213333 26.2453333,12.1504 27.2373333,13.8666667 Z M21.2,19.2 C21.2,17.4293333 19.7706667,16 18,16 C16.2293333,16 14.8,17.4293333 14.8,19.2 C14.8,20.9706667 16.2293333,22.4 18,22.4 C19.7706667,22.4 21.2,20.9706667 21.2,19.2 Z" id="Shape" fill="#DA4453"></path>
                <path d="M18,16 C19.7706667,16 21.2,17.4293333 21.2,19.2 C21.2,20.9706667 19.7706667,22.4 18,22.4 C16.2293333,22.4 14.8,20.9706667 14.8,19.2 C14.8,17.4293333 16.2293333,16 18,16 Z" id="Path" fill="#FFCE54"></path>
                <path d="M33.584,38.8053333 C35.248,40.4693333 26.9482667,51.4773333 25.2853333,53.1402667 C23.6106667,54.8053333 20.912,54.8053333 19.248,53.1402667 C18.416,52.3093333 18,51.2213333 18,50.1226667 C18,49.0336 18.416,47.9349333 19.248,47.104 C20.912,45.44 31.92,37.1402667 33.584,38.8053333 Z" id="Path" fill="#A0D468"></path>
                <path d="M18,58.5162667 L18,59.1146667 C17.936,59.7973333 17.6373333,60.4586667 17.1146667,60.9813333 C15.92,62.176 13.9797333,62.176 12.784,60.9813333 C11.5786667,59.7866667 6.29866667,52.5546667 7.49333333,51.3589333 C8.68693333,50.1642667 15.9189333,55.4442667 17.1146667,56.6389333 C17.6373333,57.1626667 17.936,57.8346667 18,58.5162667 Z" id="Path" fill="#A0D468"></path>
            </g>
            <g id="Group-42-Copy-5" transform="translate(18.852252, 19.566477) rotate(33.000000) translate(-18.852252, -19.566477) translate(6.352252, 5.066477)">
                <path d="M4.32393062,0.71669799 C3.9498976,0.906837544 3.59394837,1.20184611 3.26813879,1.615477 C2.70302041,2.33271228 2.38052618,3.02587926 2.24369219,3.68672595 C4.62110754,2.76662931 8.35269724,5.04177112 9.92327425,8.44674761 L11.2436922,7.68378257 C10.6210071,3.33979863 6.99430335,-0.640066346 4.32393062,0.71669799" id="Fill-1" fill="#C2E3F5"></path>
                <path d="M12.8662206,27.513995 C12.5500241,26.5457015 12.3364632,25.5662965 12.2231693,24.5694304 C12.1438242,23.8706717 10.8158778,24.0948079 10.8944335,24.7862646 C11.0077274,25.7831307 11.2216831,26.7625357 11.5374848,27.7301943 C11.7581513,28.4076822 13.0880714,28.1937052 12.8662206,27.513995" id="Fill-3" fill="#000000"></path>
                <path d="M15.3643343,25.6541865 C15.0299678,24.7075661 14.68476,23.7660662 14.3289963,22.8300283 C14.0679508,22.1431909 13.1943755,22.674022 13.4551357,23.3605181 C13.8108994,24.2955319 14.1558219,25.2373731 14.4901884,26.1839935 C14.7358279,26.8797065 15.6088327,26.3464858 15.3643343,25.6541865" id="Fill-5" fill="#000000"></path>
                <path d="M19.7761853,22.9040205 C19.3458446,22.2916734 18.9696172,21.643744 18.640739,20.9491989 C18.389532,20.4190498 17.6734637,20.8438311 17.925837,21.3772902 C18.2892358,22.1438274 18.7086139,22.865404 19.1832715,23.5417442 C19.5126162,24.0103828 20.1057633,23.3734866 19.7761853,22.9040205" id="Fill-7" fill="#000000"></path>
                <path d="M23.1558017,20.8575922 C22.5154836,20.1686535 21.8356475,19.5286648 21.1207916,18.9230735 C20.5742883,18.4597019 19.9792711,19.4168735 20.5232042,19.8772685 C21.1635223,20.4203493 21.765929,21.0051038 22.3390989,21.6219404 C22.828735,22.1484841 23.648972,21.387774 23.1558017,20.8575922" id="Fill-9" fill="#000000"></path>
                <path d="M13.201888,24.287725 C13.9600653,24.1293236 14.7105266,23.8586605 15.4314659,23.4633835 L17.1564869,22.5173345 C16.4942559,21.8219666 15.8796627,21.0728295 15.3009655,20.287725 C13.9567105,20.946399 12.5624695,21.4906315 11.1564869,21.9146097 C11.7965763,22.7531201 12.4789358,23.5480338 13.201888,24.287725" id="Fill-11" fill="#E0BF3B"></path>
                <path d="M9.07313893,8.30604096 L7.64542997,9.05080392 C6.92002141,9.42929528 6.27549138,9.90876055 5.71870987,10.4634739 C6.3023468,14.7641905 8.16224063,18.9436742 10.8612101,22.306041 C12.1699433,21.9310869 13.4671225,21.449049 14.7187099,20.8660373 C11.958535,17.3036521 10.1785829,12.7923052 9.07313893,8.30604096" id="Fill-13" fill="#FFE05C"></path>
                <path d="M12.7125265,23.6579438 C12.0394746,23.0753823 11.4042136,22.449329 10.808305,21.78894 C9.43971407,22.1380191 8.06050424,22.3840913 6.71252652,22.5228645 C8.44996861,23.5995732 10.6149782,24.029055 12.7125265,23.6579438" id="Fill-15" fill="#000000"></path>
                <path d="M6.17762029,10.0206228 C3.92101247,12.5188458 3.23095629,16.5163326 4.71958439,19.877218 C5.30054763,21.1883726 6.14702809,22.2477247 7.14560375,23.0206228 C8.39151447,22.8608949 9.66570855,22.5767509 10.9303786,22.1741311 C8.43567114,18.7234812 6.7167357,14.4339301 6.17762029,10.0206228" id="Fill-17" fill="#000000"></path>
                <path d="M15.0558082,21.1444307 C15.6081871,21.7794586 16.1944896,22.3853946 16.825917,22.9478395 L19.9686522,21.4858941 C20.3536533,21.3069344 20.716252,21.1024089 21.0558082,20.8773134 C20.41638,20.2552153 19.8060749,19.6107839 19.2229727,18.9478395 C17.9364354,19.799441 16.5282852,20.5329114 15.0558082,21.1444307" id="Fill-19" fill="#000000"></path>
                <path d="M19.5373665,18.3870966 C16.6772378,14.9847025 14.5479774,11.0773812 13.630614,6.69383587 C13.3765948,6.78735233 13.1261124,6.89383146 12.8778809,7.01481645 L9.53736646,8.63916336 C10.6756301,12.9452413 12.5090706,17.2747754 15.3505497,20.6938359 C16.829971,20.0518747 18.244762,19.2812127 19.5373665,18.3870966" id="Fill-21" fill="#000000"></path>
                <path d="M22.9856921,10.8566291 L22.9856921,10.8566291 C21.2577562,7.00152656 17.205273,5.30420419 13.7090073,6.83008649 C14.5383932,11.4947672 16.4627779,15.6526815 19.0474165,19.2732856 C20.9822629,17.6987957 22.6148804,15.7666465 23.7090073,13.5063963 C23.6017741,12.6055149 23.3681279,11.7108736 22.9856921,10.8566291" id="Fill-23" fill="#FFE05C"></path>
                <path d="M19.0792182,18.0976572 C19.6389987,18.8457608 20.2255232,19.5726417 20.8397139,20.2749836 C23.2008746,18.4345691 24.3889864,15.3211183 24.0096513,12.2749836 C22.8522799,14.5570976 21.1255985,16.507937 19.0792182,18.0976572" id="Fill-25" fill="#E0BF3B"></path>
                <path d="M19.8683024,10.8920213 C19.9930274,11.1381979 19.8946671,11.43872 19.6484619,11.5636333 C19.4016483,11.6883439 19.1012942,11.5897921 18.9763664,11.3436155 C18.8516414,11.0972361 18.9504074,10.7967141 19.1964097,10.6718007 C19.4424121,10.5468874 19.7435774,10.6454391 19.8683024,10.8920213" id="Fill-27" fill="#000000"></path>
                <path d="M22.6928431,13.4220207 C23.1920942,14.4066838 22.7983674,15.610353 21.8126664,16.1092582 C20.8276574,16.6078173 19.6246801,16.2144365 19.125429,15.2290815 C18.6265238,14.2437265 19.0205966,13.0407492 20.0056056,12.5418441 C20.9906146,12.042247 22.1942839,12.4366657 22.6928431,13.4220207" id="Fill-29" fill="#F7B8B8"></path>
                <g id="Group-33" transform="translate(0.433649, 3.463974)">
                    <mask id="mask-10" fill="white">
                        <use xlink:href="#path-9"></use>
                    </mask>
                    <g id="Clip-32"></g>
                    <path d="M1.81104583,0.404615385 C1.1708375,0.705538462 0.651379167,1.25415385 0.3378375,2.09569231 C-1.16337083,6.12461538 2.68692083,7.46584615 5.03862917,7.77476923 C5.24950417,7.48892308 5.47992083,7.21753846 5.72987917,6.96246154 C5.7663375,7.23938462 5.8083375,7.51569231 5.8555875,7.79107692 C5.8083375,7.51569231 5.7663375,7.23938462 5.72987917,6.96246154 C6.0874625,6.59723077 6.48412917,6.26584615 6.9178375,5.97692308 C6.42462917,5.868 5.97254583,5.72523077 5.6280875,5.53815385 C3.94312917,4.62307692 1.5182125,2.70461538 2.05750417,0.303076923 C1.97350417,0.333230769 1.8909625,0.366769231 1.81104583,0.404615385" id="Fill-31" fill="#C2E3F5" mask="url(#mask-10)"></path>
                </g>
                <path d="M2.11199033,3.29049256 C1.53742784,5.75045764 4.1206285,7.71559309 5.91578671,8.65293276 C6.28308409,8.84456105 6.76535613,8.99080368 7.29019986,9.10237673 C7.49932942,8.96811086 7.71653828,8.84266998 7.94213718,8.72699961 L9.36222945,7.99736231 L10.0303254,7.65413336 C8.4110473,4.53292463 4.563747,2.44739114 2.11199033,3.29049256" id="Fill-34" fill="#A6D9F2"></path>
                <path d="M9.06001236,8.92103332 L7.60546691,9.66002503 C7.37513207,9.77712777 7.15275077,9.90380295 6.93832303,10.0397315 C6.46588209,10.3396677 6.03257261,10.6829989 5.64253046,11.0617481 C5.68261636,11.348921 5.72811067,11.6354558 5.77964968,11.9210333 C7.05349045,11.8297761 8.68110518,11.3393486 9.64253046,11.0158004 C9.43064785,10.3192465 9.23689934,9.61982081 9.06001236,8.92103332" id="Fill-36" fill="#C2D6AB"></path>
                <path d="M5.89162341,11.2826309 C5.58601827,11.584859 5.30397614,11.9071626 5.04585404,12.2458916 C5.07334422,12.2495417 5.09976336,12.2528268 5.12689652,12.2561119 C5.40251238,12.2896928 5.71347275,12.2896928 6.04585404,12.2656021 C5.98801755,11.9385534 5.93660734,11.6111397 5.89162341,11.2826309" id="Fill-38" fill="#4F7082"></path>
                <path d="M10.2728056,8.3981063 L9.78384591,8.82499772 C9.90995563,9.68348459 10.0490405,10.5427555 10.2006454,11.3981063 C10.5557558,11.1926967 10.7838459,11.0417755 10.7838459,11.0417755 C10.7055395,10.1174321 10.5263909,9.22797694 10.2728056,8.3981063" id="Fill-40" fill="#4F7082"></path>
            </g>
        </g>
    </g>
</svg>