<?xml version="1.0" encoding="UTF-8"?>
<svg width="133px" height="132px" viewBox="0 0 133 132" version="1.1" xmlns="http://www.w3.org/2000/svg" xmlns:xlink="http://www.w3.org/1999/xlink">
    <title>Group 2</title>
    <defs>
        <polygon id="path-1" points="0.810869587 0.861 22.6014627 0.861 22.6014627 31.8666 0.810869587 31.8666"></polygon>
        <polygon id="path-3" points="0.99372816 0.235922059 5.03473539 0.235922059 5.03473539 11 0.99372816 11"></polygon>
        <polygon id="path-5" points="0.966499278 0.8375 23.563 0.8375 23.563 37.6145 0.966499278 37.6145"></polygon>
    </defs>
    <g id="Page-1" stroke="none" stroke-width="1" fill="none" fill-rule="evenodd">
        <g id="choose-asso/bene" transform="translate(-41.000000, -323.000000)">
            <g id="Group-2" transform="translate(41.000000, 323.000000)">
                <rect id="Rectangle" stroke="#000000" stroke-width="4" fill="#FFFFFF" x="2" y="2" width="129" height="128" rx="15"></rect>
                <g id="Group-40" transform="translate(25.000000, 32.000000)">
                    <polygon id="Fill-1" fill="#91CEED" points="0 50.5495 12.608 54.1825 12.608 46.9175"></polygon>
                    <g id="Group-39" transform="translate(11.000000, 0.139000)">
                        <g id="Group-4" transform="translate(12.000000, 0.000000)">
                            <mask id="mask-2" fill="white">
                                <use xlink:href="#path-1"></use>
                            </mask>
                            <g id="Clip-3"></g>
                            <path d="M18.2696,31.8666 C18.2696,31.8666 8.6426,27.0956 5.6536,22.9666 C1.5066,17.2376 -3.7094,6.0076 7.8596,1.5246 C20.5426,-3.3894 27.7266,20.2086 18.2696,31.8666" id="Fill-2" fill="#91CEED" mask="url(#mask-2)"></path>
                        </g>
                        <path d="M11.3556,75.6127 C11.9356,72.9197 12.7316,70.3017 13.7476,67.7417 C14.4596,65.9467 11.5596,65.1687 10.8546,66.9447 C9.8376,69.5047 9.0426,72.1227 8.4616,74.8147 C8.0566,76.6977 10.9486,77.5017 11.3556,75.6127" id="Fill-5" fill="#000000"></path>
                        <path d="M22.0694,76.556 C22.2514,73.932 22.3964,71.306 22.5064,68.677 C22.5894,66.747 19.5884,66.75 19.5064,68.677 C19.3964,71.306 19.2514,73.932 19.0694,76.556 C18.9354,78.483 21.9364,78.475 22.0694,76.556" id="Fill-7" fill="#000000"></path>
                        <g id="Group-11" transform="translate(31.000000, 67.000000)">
                            <mask id="mask-4" fill="white">
                                <use xlink:href="#path-3"></use>
                            </mask>
                            <g id="Clip-10"></g>
                            <path d="M4.9913,9.1283 C4.4303,6.6693 4.1003,4.2013 3.9953,1.6823 C3.9153,-0.2407 0.9153,-0.2517 0.9953,1.6823 C1.1113,4.4633 1.4793,7.2113 2.0983,9.9253 C2.5273,11.8073 5.4213,11.0113 4.9913,9.1283" id="Fill-9" fill="#000000" mask="url(#mask-4)"></path>
                        </g>
                        <path d="M46.1105,74.2299 C45.3795,71.8209 44.4945,69.4769 43.4835,67.1709 C42.7105,65.4069 40.1245,66.9319 40.8925,68.6849 C41.7985,70.7509 42.5625,72.8699 43.2165,75.0269 C43.7765,76.8699 46.6725,76.0839 46.1105,74.2299" id="Fill-12" fill="#000000"></path>
                        <path d="M16.5655,69.4096 C18.4995,69.9626 20.5365,70.2646 22.6415,70.2646 L27.6755,70.2646 C26.8935,67.9946 26.2795,65.6656 25.7885,63.2996 C21.9495,63.1306 18.1205,62.6576 14.3935,61.9126 C14.9685,64.4646 15.6905,66.9716 16.5655,69.4096" id="Fill-14" fill="#E0C03B"></path>
                        <path d="M27.1183,25.7245 L22.6413,25.7245 C20.3663,25.7245 18.1703,26.0715 16.0983,26.7125 C12.2743,37.8715 11.7853,50.3515 14.3933,61.9125 C18.1203,62.6575 21.9493,63.1305 25.7883,63.2995 C23.2733,51.1775 24.3693,37.9935 27.1183,25.7245" id="Fill-16" fill="#FFE05C"></path>
                        <path d="M16.5655,69.4096 C15.6905,66.9716 14.9685,64.4646 14.3935,61.9126 C10.4975,61.1336 6.7165,60.0606 3.1615,58.7326 C6.0105,63.8616 10.8205,67.7686 16.5655,69.4096" id="Fill-18" fill="#000000"></path>
                        <path d="M16.0987,26.7128 C7.0167,29.5248 0.3707,38.0208 0.3707,47.9948 C0.3707,51.8838 1.3897,55.5438 3.1607,58.7328 C6.7167,60.0608 10.4967,61.1328 14.3937,61.9128 C11.7857,50.3518 12.2747,37.8718 16.0987,26.7128" id="Fill-20" fill="#000000"></path>
                        <path d="M25.7882,63.2992 C26.2792,65.6652 26.8932,67.9942 27.6762,70.2652 L37.2932,70.2652 C38.4712,70.2652 39.6282,70.1702 40.7582,69.9912 C40.0362,67.5532 39.4152,65.0912 38.8872,62.6142 C34.6092,63.2842 30.1952,63.4922 25.7882,63.2992" id="Fill-22" fill="#000000"></path>
                        <path d="M38.8868,62.6146 C36.3058,50.5116 36.1438,38.0316 39.5268,25.8376 C38.7918,25.7626 38.0468,25.7246 37.2928,25.7246 L27.1178,25.7246 C24.3688,37.9936 23.2738,51.1766 25.7878,63.2996 C30.1958,63.4926 34.6098,63.2846 38.8868,62.6146" id="Fill-24" fill="#000000"></path>
                        <g id="Group-28" transform="translate(36.000000, 25.000000)">
                            <mask id="mask-6" fill="white">
                                <use xlink:href="#path-5"></use>
                            </mask>
                            <g id="Clip-27"></g>
                            <path d="M23.5636,22.9945 L23.5636,22.9945 C23.5636,11.4995 14.7366,1.9675 3.5266,0.8375 C0.1436,13.0325 0.3056,25.5125 2.8866,37.6145 C9.9666,36.5075 16.6666,34.1405 22.3176,30.2635 C23.1126,27.9795 23.5636,25.5395 23.5636,22.9945" id="Fill-26" fill="#FFE05C" mask="url(#mask-6)"></path>
                        </g>
                        <path d="M38.8868,62.6146 C39.4148,65.0916 40.0358,67.5526 40.7578,69.9916 C48.9348,68.6996 55.6528,62.9096 58.3178,55.2626 C52.6658,59.1396 45.9668,61.5076 38.8868,62.6146" id="Fill-29" fill="#E0C03B"></path>
                        <path d="M51.8927,44.6244 C51.8927,45.8134 50.9287,46.7774 49.7397,46.7774 C48.5507,46.7774 47.5857,45.8134 47.5857,44.6244 C47.5857,43.4354 48.5507,42.4714 49.7397,42.4714 C50.9287,42.4714 51.8927,43.4354 51.8927,44.6244" id="Fill-31" fill="#000000"></path>
                        <path d="M53.9054,53.682 C53.9054,56.471 51.6444,58.731 48.8564,58.731 C46.0684,58.731 43.8074,56.471 43.8074,53.682 C43.8074,50.894 46.0684,48.634 48.8564,48.634 C51.6444,48.634 53.9054,50.894 53.9054,53.682" id="Fill-33" fill="#F7B7B7"></path>
                        <path d="M28.3107,31.8666 C28.3107,31.8666 17.6227,30.7676 13.3767,27.9466 C7.4867,24.0316 -1.3313,15.3386 7.9367,7.0896 C18.0977,-1.9544 33.0877,17.6366 28.3107,31.8666" id="Fill-35" fill="#91CEED"></path>
                        <path d="M34.6017,27.5609 L49.7397,29.5599 L54.9187,16.3639 L46.8927,18.5139 L44.2337,10.2339 C44.2337,10.2339 38.7607,17.2229 38.7297,17.2289 C38.6997,17.2359 31.9527,11.3169 31.9527,11.3169 L34.6017,27.5609 Z" id="Fill-37" fill="#F9D12B"></path>
                    </g>
                </g>
            </g>
        </g>
    </g>
</svg>