<svg xmlns="http://www.w3.org/2000/svg" viewBox="0 0 429.2 554.49"><defs><style>.cls-1{fill:none;stroke:#333;stroke-miterlimit:10;stroke-width:7.6px;}.cls-2{fill:#333;}</style></defs><g id="Calque_2" data-name="Calque 2"><g id="Calque_1-2" data-name="Calque 1"><line class="cls-1" x1="131.29" y1="431.95" x2="309.89" y2="431.95"/><line class="cls-1" x1="130.2" y1="450.95" x2="308.8" y2="450.95"/><line class="cls-1" x1="130.2" y1="469.95" x2="308.8" y2="469.95"/><path class="cls-2" d="M231.08,528.88c.16,4.38.07-5.29,0,0Z"/><path class="cls-2" d="M429.11,288.42c0-19.95.29-39.9-.22-59.83a19.76,19.76,0,0,0-5-12q-19.57-20.64-40.25-40.21c-2.64-2.51-7.17-4-10.92-4.19-10.68-.55-21.4-.39-32.1-.09-6.84.19-9.54-2.43-9.48-9.42.24-28.94-.09-38.89.25-67.82a19.57,19.57,0,0,0-5.87-14.92c-7.92-8.22-15.55-16.73-23.39-25-3.68-3.89-3.92-7.57,0-11.42,3.62-3.58,7.12-7.29,10.78-10.83,9.35-9,9.7-11.19,3.37-22.5-4.4-7.86-17.75-9.95-23.9-3.75-6.67,6.73-13.06,13.78-20.18,20-3,2.6-7.49,4.8-11.33,4.84q-44.15.57-88.3,0c-3.86-.05-8.39-2.11-11.37-4.68-6.79-5.86-12.82-12.6-19.13-19-9-9.1-9-9.11-20.39-4.23-10.08,4.3-12.88,17.65-5.28,25.3,3.94,4,7.92,7.89,11.9,11.82,6.78,6.71,6.8,8.49.12,15.53-7.85,8.29-15.88,16.42-23.46,24.95-2.27,2.55-4.59,6.18-4.65,9.37-.43,22.11-.26,24.24-.32,46.37,0,4.85,2.4,7.16,7.14,7.18,5.83,0,11.65.07,17.47,0s8.72-2.43,8.6-8.88c-.32-16.53-.34-13.08.13-29.6a19,19,0,0,1,4.3-11c7.57-8.85,15.67-17.29,23.95-25.5,2.16-2.13,5.7-4,8.63-4.06q45.24-.45,90.48,0a13.92,13.92,0,0,1,8.87,3.69q12.63,12.61,24.31,26.18a16.41,16.41,0,0,1,3.93,9.62c.32,26,.12,33,.27,59.07,0,6.19-2.49,8.76-8.74,8.65-12.64-.22-25.29-.07-37.94,0-4.94,0-16.22,9.19-17.27,13.87-1.26,5.62,17.77,22.59,23.52,21.22a54.33,54.33,0,0,1,12.05-1.79c20.91-.16,41.84.1,62.75-.06,34.39-.26,34.52-.47,58,24.62a20.73,20.73,0,0,1,5.14,12.7c.47,28.69,0,57.4.48,86.09.14,8.68-1.8,15.33-8.74,20.93-5.64,4.56-10,10.67-15.66,15.22-3.29,2.64-7.95,4.92-12,5-21.88.48-43.78.3-65.67.17-11.15-.07-23.54,2.42-33.09-1.63s-16.2-14.93-24.34-22.59c-4-3.78-5.58-8-5.54-13.53q.33-51.44-.06-102.87c0-4-1.33-9-3.93-11.76-13.34-14.15-27.15-27.86-41.18-41.33a16.37,16.37,0,0,0-10.23-4.12q-60.57-.43-121.13-.06A13.28,13.28,0,0,0,46,175.28q-21.9,21.36-43.19,43.35a11.08,11.08,0,0,0-2.7,7C0,266.53-.08,307.39.19,348.25a15.2,15.2,0,0,0,4.07,9.41C17.59,371.48,31.13,385.12,45,398.35A19.21,19.21,0,0,0,56.4,403c11.39.62,22.85.48,34.28.16,7-.19,9.58,2.76,9.46,9.54-.25,15.31,0,30.64-.29,45.95-.11,5.24,1.24,9.16,5.08,12.91,11.61,11.33,22.9,23,34.45,34.37h-.47q4,3.92,8,7.78c2.6,2.5,7.07,4,10.78,4.23,5.34.31,10.69.41,16.05.41,5.17,0,10.35-.06,15.52-.13,5.7,0,8.32,2.63,8.29,8.3,0,6.57,0,3.14,0,9.7,0,10.86,4.75,16.53,15.25,18.13,7.88,1.21,17.75-6.92,17.83-14.77.05-5,.12-5.31.09-7.36a10.86,10.86,0,0,0,.38-2.64c0-.27,0-.5,0-.72s0-.7,0-1.17c-.18-6.3,2.17-9.37,8.23-9.57h.79c5.55.16,11.11.27,16.66.27s11.1-.1,16.63-.38a18,18,0,0,0,10.77-4.3c14.37-13.79,28.41-27.93,42.24-42.27a17.65,17.65,0,0,0,4.74-10c.65-8.71.08-17.5.19-26.25.06-5.27-2.62-7.56-7.56-7.62-5.83-.07-11.67.07-17.51,0s-9.2,2.59-8.11,8.39c2.71,14.41-4.65,23.8-14.77,32.24a77.71,77.71,0,0,0-10.24,10.36c-4.22,5.17-9.36,6.89-15.93,6.83-28.69-.25-57.39,0-86.08-.34A16.7,16.7,0,0,1,161,480.85c-8.25-7.54-16.16-15.48-23.64-23.78a17.62,17.62,0,0,1-4-10.26c-.5-11.41,0-22.86-.26-34.28-.15-6.94,2.86-9.55,9.67-9.38,11.18.3,22.37.11,33.56.06,5.91,0,16.94-7.82,18.35-13.4A7.36,7.36,0,0,0,193,384a160.94,160.94,0,0,0-14.59-14.26c-1.67-1.42-4.78-1.72-7.18-1.59-3.77.2-7.51,1.74-11.27,1.77q-31.38.26-62.75,0c-11.61-.1-24.51,2.33-34.44-1.94s-17.28-15.25-25.23-23.77a16.49,16.49,0,0,1-4.12-10.14c-.33-30.15,0-60.31-.34-90.47-.06-6.62,1.69-11.54,6.67-16,6.17-5.48,11.39-12,17.72-17.3,3.22-2.67,7.95-4.87,12-4.93,29.67-.41,59.35-.07,89-.35,6.79-.06,12.05,1.47,16.66,6.77,5.41,6.22,11.52,11.85,17.53,17.53,4,3.78,5.4,8.06,5.37,13.61q-.35,51.79,0,103.6c0,3.54,1.17,8,3.48,10.42q20.37,21.38,41.7,41.83A16.15,16.15,0,0,0,253.43,403c39.64.31,79.29.11,118.94.4,5.95,0,10.11-2.07,14-6.08,12.56-12.85,25.16-25.67,38-38.27,3.6-3.54,4.89-7.27,4.83-12.24C429,327.33,429.1,307.88,429.11,288.42Z"/></g></g></svg>