<?xml version="1.0" encoding="UTF-8"?>
<svg width="35px" height="39px" viewBox="0 0 35 39" version="1.1" xmlns="http://www.w3.org/2000/svg" xmlns:xlink="http://www.w3.org/1999/xlink">
    <title>Group 28</title>
    <defs>
        <polygon id="path-1" points="0 0.00811147997 34.5598146 0.00811147997 34.5598146 34.5600024 0 34.5600024"></polygon>
    </defs>
    <g id="Page-1" stroke="none" stroke-width="1" fill="none" fill-rule="evenodd">
        <g id="event-detail-public" transform="translate(-313.000000, -385.000000)">
            <g id="Group-28" transform="translate(313.000000, 385.000000)">
                <path d="M9.2925548,7.55307616 L7.19532177,5.29291349 C6.70882487,4.76865051 6.06168229,4.48000032 5.37301034,4.48000032 C4.68433838,4.48000032 4.0371958,4.76872595 3.55076906,5.29291349 L2.03052765,6.93141448 C1.02982424,8.00974097 1.02982424,9.76442631 2.03052765,10.8428282 L4.13218019,13.1077439 C4.3377225,13.3292486 4.60731263,13.440001 4.87704306,13.440001 C5.14593168,13.440001 5.41496061,13.3297767 5.62036261,13.1094037 C6.03172783,12.6679032 8.88027762,9.59437468 9.29108163,9.15347774 C9.70237669,8.71205269 9.7030782,7.99555743 9.2925548,7.55307616" id="Fill-1" fill="#105C6E"></path>
                <path d="M17.2800012,0 C16.5730998,0 16.0000011,0.495950804 16.0000011,1.10769239 L16.0000011,4.65230802 C16.0000011,5.2640496 16.5730998,5.76000041 17.2800012,5.76000041 C17.9869026,5.76000041 18.5600013,5.2640496 18.5600013,4.65230802 L18.5600013,1.10769239 C18.5600013,0.495950804 17.9869026,0 17.2800012,0" id="Fill-3" fill="#26879C"></path>
                <path d="M20.5600015,0 L14.640001,0 C13.977281,0 13.440001,0.573098707 13.440001,1.28000009 C13.440001,1.98690147 13.977281,2.56000018 14.640001,2.56000018 L20.5600015,2.56000018 C21.2227215,2.56000018 21.7600015,1.98690147 21.7600015,1.28000009 C21.7600015,0.573098707 21.2227215,0 20.5600015,0" id="Fill-5" fill="#DE513C"></path>
                <path d="M17.2800012,0 L14.5476933,0 C13.9359518,0 13.440001,0.573098707 13.440001,1.28000009 C13.440001,1.98690147 13.9359518,2.56000018 14.5476933,2.56000018 L17.2800012,2.56000018 L17.2800012,0 Z" id="Fill-7" fill="#FC6249"></path>
                <g id="Group-11" transform="translate(0.000000, 3.840000)">
                    <mask id="mask-2" fill="white">
                        <use xlink:href="#path-1"></use>
                    </mask>
                    <g id="Clip-10"></g>
                    <path d="M29.499479,5.0689403 C26.2357375,1.80545651 21.896053,0.00811147997 17.2798885,0.00811147997 C12.6638743,0.00811147997 8.32411468,1.80545651 5.0602981,5.0689403 C1.79708256,8.33182435 -3.756522e-05,12.6699668 -3.756522e-05,17.2839895 C-3.756522e-05,21.8980872 1.79708256,26.2363046 5.0602981,29.4991886 C8.32411468,32.7626724 12.6638743,34.5600174 17.2798885,34.5600174 C21.896053,34.5600174 26.2357375,32.7626724 29.499479,29.4991886 C32.7627696,26.2363046 34.5598146,21.8980872 34.5598146,17.2839895 C34.5598146,12.6699668 32.7627696,8.33182435 29.499479,5.0689403" id="Fill-9" fill="#DE513C" mask="url(#mask-2)"></path>
                </g>
                <path d="M17.2800012,3.84000027 C12.6638918,3.84000027 8.32418843,5.63776647 5.06035766,8.90201498 C1.79712794,12.1656636 0,16.5048226 0,21.1200015 C0,25.7351804 1.79712794,30.0743394 5.06035766,33.337988 C8.32418843,36.6022365 12.6638918,38.4000027 17.2800012,38.4000027 L17.2800012,3.84000027 Z" id="Fill-12" fill="#FC6249"></path>
                <path d="M16.9600012,8.32000059 C9.72562947,8.32000059 3.84000027,14.2055759 3.84000027,21.4399636 C3.84000027,28.6743513 9.72562947,34.5600024 16.9600012,34.5600024 C24.1943729,34.5600024 30.0800021,28.6743513 30.0800021,21.4399636 C30.0800021,14.2055759 24.1943729,8.32000059 16.9600012,8.32000059" id="Fill-14" fill="#96D1D9"></path>
                <path d="M17.2800012,8.32000059 C9.8691814,8.32000059 3.84000027,14.2055759 3.84000027,21.4399636 C3.84000027,28.6743513 9.8691814,34.5600024 17.2800012,34.5600024 L17.2800012,8.32000059 Z" id="Fill-16" fill="#F4F2E6"></path>
                <path d="M17.2800012,10.8800008 C17.9869026,10.8800008 18.5600013,10.3064126 18.5600013,9.59890748 L18.5600013,7.73636865 C18.138028,7.69981479 17.7112759,7.68000054 17.2800012,7.68000054 C16.8487265,7.68000054 16.4219745,7.69981479 16.0000011,7.73636865 L16.0000011,9.59890748 C16.0000011,10.3064126 16.5730998,10.8800008 17.2800012,10.8800008" id="Fill-18" fill="#105C6E"></path>
                <path d="M17.2800012,31.3600022 C16.5730998,31.3600022 16.0000011,31.9336605 16.0000011,32.6410613 L16.0000011,34.5036358 C16.4219745,34.5401033 16.8487265,34.5600024 17.2800012,34.5600024 C17.7112759,34.5600024 18.138028,34.5401033 18.5600013,34.5036358 L18.5600013,32.6410613 C18.5600013,31.9336605 17.9869026,31.3600022 17.2800012,31.3600022" id="Fill-20" fill="#105C6E"></path>
                <path d="M30.663561,19.8400014 L28.8125484,19.8400014 C28.0986319,19.8400014 27.5200019,20.4131001 27.5200019,21.1200015 C27.5200019,21.8269029 28.0986319,22.4000016 28.8125484,22.4000016 L30.663561,22.4000016 C30.7002693,21.9781136 30.7200022,21.5513615 30.7200022,21.1200015 C30.7200022,20.6887268 30.7002693,20.2619748 30.663561,19.8400014" id="Fill-22" fill="#105C6E"></path>
                <path d="M7.0400005,21.1200015 C7.0400005,20.4131001 6.46129997,19.8400014 5.7474889,19.8400014 L3.89652611,19.8400014 C3.85981878,20.2619748 3.84000027,20.6887268 3.84000027,21.1200015 C3.84000027,21.5513615 3.85981878,21.9781136 3.89652611,22.4000016 L5.7474889,22.4000016 C6.46129997,22.4000016 7.0400005,21.8269029 7.0400005,21.1200015" id="Fill-24" fill="#105C6E"></path>
                <path d="M19.9592143,20.6778638 L18.3215756,20.6778638 L18.3215756,15.90107 C18.3215756,15.2487262 17.8018525,14.720001 17.1607884,14.720001 C16.5197243,14.720001 16.0000011,15.2487262 16.0000011,15.90107 L16.0000011,21.8589327 C16.0000011,22.511119 16.5197243,23.0400016 17.1607884,23.0400016 L19.9592143,23.0400016 C20.6002784,23.0400016 21.1200015,22.511119 21.1200015,21.8589327 C21.1200015,21.2066677 20.6002784,20.6778638 19.9592143,20.6778638" id="Fill-26" fill="#105C6E"></path>
            </g>
        </g>
    </g>
</svg>