<svg xmlns="http://www.w3.org/2000/svg" viewBox="0 0 821.9 618.7"><defs><style>.cls-1{fill:#f9d655;stroke:#000;stroke-width:0.9px;}.cls-1,.cls-2{stroke-miterlimit:10;}.cls-2{fill:none;stroke:#333;stroke-width:3.8px;}.cls-3{fill:#333;}</style></defs><g id="Calque_2" data-name="Calque 2"><g id="Calque_1-2" data-name="Calque 1"><rect class="cls-1" x="0.45" y="0.45" width="821" height="617.8"/><g id="Calque_1-2-2" data-name="Calque 1-2"><line class="cls-2" x1="369.29" y1="386.68" x2="458.59" y2="386.68"/><line class="cls-2" x1="368.75" y1="396.18" x2="458.05" y2="396.18"/><line class="cls-2" x1="368.75" y1="405.68" x2="458.05" y2="405.68"/><path class="cls-3" d="M518.2,314.91c0-10,.15-20-.11-29.91a9.83,9.83,0,0,0-2.5-6q-9.78-10.32-20.12-20.11A9.14,9.14,0,0,0,490,256.8c-5.34-.28-10.7-.2-16.05-.05-3.42.1-4.77-1.21-4.74-4.71.12-14.47-.05-19.44.12-33.91a9.8,9.8,0,0,0-2.93-7.46c-4-4.11-7.78-8.36-11.7-12.5-1.84-1.94-2-3.78,0-5.71s3.56-3.64,5.39-5.41c4.68-4.5,4.85-5.6,1.69-11.25-2.2-3.93-8.88-5-12-1.88-3.34,3.37-6.53,6.89-10.09,10a9.69,9.69,0,0,1-5.67,2.42q-22.06.28-44.15,0a9.63,9.63,0,0,1-5.68-2.34c-3.4-2.93-6.41-6.3-9.57-9.5-4.5-4.55-4.5-4.55-10.19-2.11A7.87,7.87,0,0,0,361.85,185c2,2,4,3.94,5.95,5.91,3.39,3.35,3.4,4.24.06,7.76-3.93,4.15-7.94,8.21-11.73,12.48-1.14,1.27-2.3,3.09-2.33,4.68-.21,11.06-.13,12.12-.16,23.19,0,2.42,1.2,3.58,3.57,3.59,2.92,0,5.83,0,8.74,0s4.36-1.22,4.3-4.44c-.16-8.27-.17-6.54.06-14.8a9.55,9.55,0,0,1,2.15-5.5c3.79-4.43,7.84-8.65,12-12.75a7.07,7.07,0,0,1,4.31-2q22.62-.23,45.24,0a7,7,0,0,1,4.44,1.84q6.31,6.32,12.15,13.09a8.24,8.24,0,0,1,2,4.81c.16,13,.06,16.5.13,29.54,0,3.09-1.24,4.38-4.37,4.32-6.32-.11-12.64,0-19,0-2.47,0-8.11,4.6-8.63,6.94-.63,2.81,8.88,11.29,11.76,10.61a27.29,27.29,0,0,1,6-.9c10.46-.08,20.92.05,31.38,0,17.19-.13,17.26-.23,29,12.31a10.39,10.39,0,0,1,2.57,6.35c.23,14.35,0,28.7.24,43.05.07,4.34-.9,7.66-4.37,10.46-2.82,2.28-5,5.34-7.83,7.61a10.88,10.88,0,0,1-6,2.5c-10.94.24-21.89.15-32.84.09-5.57,0-11.77,1.21-16.54-.82s-8.1-7.46-12.17-11.29a8.51,8.51,0,0,1-2.77-6.77q.16-25.71,0-51.43a9.23,9.23,0,0,0-2-5.88c-6.67-7.08-13.57-13.93-20.59-20.67a8.24,8.24,0,0,0-5.11-2.06q-30.29-.21-60.57,0a6.67,6.67,0,0,0-4.24,1.57Q315.7,269,305.05,280a5.55,5.55,0,0,0-1.35,3.5c-.05,20.45-.09,40.88,0,61.31a7.63,7.63,0,0,0,2,4.7c6.66,6.91,13.43,13.73,20.37,20.35a9.58,9.58,0,0,0,5.7,2.32c5.69.31,11.42.24,17.14.08,3.5-.09,4.79,1.38,4.73,4.77-.13,7.66,0,15.32-.15,23a8,8,0,0,0,2.54,6.45c5.81,5.67,11.45,11.5,17.23,17.19h-.24l4,3.89a9.08,9.08,0,0,0,5.39,2.11c2.67.16,5.35.21,8,.21s5.17,0,7.76-.07c2.85,0,4.16,1.32,4.14,4.15v4.85c0,5.43,2.38,8.27,7.63,9.07,3.94.6,8.87-3.46,8.91-7.39,0-2.5.06-2.65.05-3.68a5.33,5.33,0,0,0,.19-1.32v-.94c-.09-3.15,1.08-4.69,4.11-4.79h.4c2.77.08,5.55.14,8.33.14s5.55,0,8.31-.19a9,9,0,0,0,5.39-2.15q10.77-10.35,21.12-21.14a8.9,8.9,0,0,0,2.37-5c.32-4.35,0-8.75.09-13.12,0-2.64-1.31-3.78-3.78-3.81-2.91,0-5.83,0-8.75,0s-4.6,1.29-4.06,4.19c1.36,7.21-2.32,11.9-7.38,16.12a39.15,39.15,0,0,0-5.12,5.18c-2.11,2.59-4.68,3.45-8,3.42-14.34-.13-28.69,0-43-.17a8.35,8.35,0,0,1-5.07-2.1q-6.19-5.65-11.82-11.89a8.78,8.78,0,0,1-2-5.13c-.25-5.71,0-11.43-.13-17.14-.08-3.47,1.43-4.78,4.83-4.69,5.59.15,11.19.05,16.78,0,3,0,8.47-3.91,9.18-6.7a3.7,3.7,0,0,0-.84-2.91,80.54,80.54,0,0,0-7.3-7.13,5.5,5.5,0,0,0-3.59-.79c-1.88.1-3.75.87-5.63.88q-15.69.13-31.38,0c-5.8-.05-12.25,1.17-17.22-1s-8.64-7.62-12.61-11.88a8.23,8.23,0,0,1-2.06-5.07c-.17-15.08,0-30.16-.17-45.24a9.64,9.64,0,0,1,3.33-8c3.09-2.74,5.7-6,8.86-8.65a10.57,10.57,0,0,1,6-2.46c14.84-.21,29.68,0,44.5-.18,3.4,0,6,.74,8.33,3.39,2.71,3.11,5.76,5.92,8.77,8.76a8.51,8.51,0,0,1,2.68,6.81q-.17,25.89,0,51.8a8.16,8.16,0,0,0,1.74,5.21q10.19,10.69,20.85,20.91a8,8,0,0,0,5.11,2.11c19.82.16,39.65.06,59.47.2a9,9,0,0,0,7-3c6.28-6.42,12.58-12.83,19-19.13a7.72,7.72,0,0,0,2.42-6.12C518.15,334.37,518.2,324.64,518.2,314.91Z"/></g></g></g></svg>