<?xml version="1.0" encoding="UTF-8"?>
<svg width="45px" height="47px" viewBox="0 0 45 47" version="1.1" xmlns="http://www.w3.org/2000/svg" xmlns:xlink="http://www.w3.org/1999/xlink">
    <title>Group 41</title>
    <defs>
        <polygon id="path-1" points="0 0.0159714346 44.7656656 0.0159714346 44.7656656 42.240003 0 42.240003"></polygon>
        <polygon id="path-3" points="0 0.0337371452 44.7657111 0.0337371452 44.7657111 12.0701266 0 12.0701266"></polygon>
        <polygon id="path-5" points="0 0.0161462869 44.7657111 0.0161462869 44.7657111 11.4718728 0 11.4718728"></polygon>
        <polygon id="path-7" points="0.0322893936 0 1.88792779 0 1.88792779 9.58449095 0.0322893936 9.58449095"></polygon>
        <polygon id="path-9" points="0.021771132 0 1.87732605 0 1.87732605 9.58449095 0.021771132 9.58449095"></polygon>
        <polygon id="path-11" points="0.0112194791 0 1.86685787 0 1.86685787 9.58449095 0.0112194791 9.58449095"></polygon>
        <polygon id="path-13" points="0.000534260907 0 1.85617265 0 1.85617265 9.58449095 0.000534260907 9.58449095"></polygon>
        <polygon id="path-15" points="0 46.0800033 44.8000032 46.0800033 44.8000032 0 0 0"></polygon>
    </defs>
    <g id="Page-1" stroke="none" stroke-width="1" fill="none" fill-rule="evenodd">
        <g id="event-detail-public" transform="translate(-49.000000, -385.000000)">
            <g id="Group-41" transform="translate(49.000000, 385.000000)">
                <g id="Group-3" transform="translate(0.000000, 3.840000)">
                    <mask id="mask-2" fill="white">
                        <use xlink:href="#path-1"></use>
                    </mask>
                    <g id="Clip-2"></g>
                    <path d="M39.3455937,0.0159714346 L5.42015388,0.0159714346 C2.42674879,0.0159714346 -9.1056917e-06,2.4317189 -9.1056917e-06,5.41154263 L-9.1056917e-06,36.8443593 C-9.1056917e-06,39.824183 2.42674879,42.2400211 5.42015388,42.2400211 L39.3455937,42.2400211 C42.3389988,42.2400211 44.7656656,39.8242737 44.7656656,36.8443593 L44.7656656,5.41154263 C44.7656656,2.43153761 42.3389988,0.0159714346 39.3455937,0.0159714346" id="Fill-1" fill="#EBF0F3" mask="url(#mask-2)"></path>
                </g>
                <g id="Group-6" transform="translate(0.000000, 2.560000)">
                    <mask id="mask-4" fill="white">
                        <use xlink:href="#path-3"></use>
                    </mask>
                    <g id="Clip-5"></g>
                    <path d="M44.7657111,12.0701266 L44.7657111,5.47593182 C44.7657111,2.47030875 42.3390443,0.0337371452 39.3456392,0.0337371452 L5.42019941,0.0337371452 C2.42670326,0.0337371452 -5.46341502e-05,2.47030875 -5.46341502e-05,5.47593182 L-5.46341502e-05,12.0701266 L44.7657111,12.0701266 Z" id="Fill-4" fill="#E0BF3B" mask="url(#mask-4)"></path>
                </g>
                <g id="Group-9" transform="translate(0.000000, 3.840000)">
                    <mask id="mask-6" fill="white">
                        <use xlink:href="#path-5"></use>
                    </mask>
                    <g id="Clip-8"></g>
                    <path d="M44.7657111,11.4718728 L44.7657111,5.45843239 C44.7657111,2.45280932 42.3390443,0.0161462869 39.3456392,0.0161462869 L5.42019941,0.0161462869 C2.42670326,0.0161462869 -5.46341502e-05,2.45280932 -5.46341502e-05,5.45843239 L-5.46341502e-05,11.4718728 L44.7657111,11.4718728 Z" id="Fill-7" fill="#FFE05C" mask="url(#mask-6)"></path>
                </g>
                <path d="M8.96004684,7.0400005 C7.89960825,7.0400005 7.0400005,7.89960825 7.0400005,8.96004684 C7.0400005,10.0204854 7.89960825,10.8800008 8.96004684,10.8800008 C10.0204854,10.8800008 10.8800008,10.020393 10.8800008,8.96004684 C10.8800932,7.89960825 10.0204854,7.0400005 8.96004684,7.0400005" id="Fill-10" fill="#E0BF3B"></path>
                <g id="Group-14" transform="translate(7.680001, 0.000000)">
                    <mask id="mask-8" fill="white">
                        <use xlink:href="#path-7"></use>
                    </mask>
                    <g id="Clip-13"></g>
                    <path d="M0.960066851,-8.80734007e-06 C0.447760727,-8.80734007e-06 0.0322893936,0.438332508 0.0322893936,0.978838968 L0.0322893936,8.60564318 C0.0322893936,9.14632578 0.447760727,9.58449095 0.960066851,9.58449095 C1.47245645,9.58449095 1.88792779,9.14632578 1.88792779,8.60564318 L1.88792779,0.978838968 C1.88792779,0.438332508 1.47262341,-8.80734007e-06 0.960066851,-8.80734007e-06" id="Fill-12" fill="#4D5C7D" mask="url(#mask-8)"></path>
                </g>
                <path d="M17.9200937,7.0400005 C16.8596296,7.0400005 16.0000011,7.89960825 16.0000011,8.96004684 C16.0000011,10.0204854 16.8596296,10.8800008 17.9200937,10.8800008 C18.9805578,10.8800008 19.8400014,10.020393 19.8400014,8.96004684 C19.8401862,7.89960825 18.9805578,7.0400005 17.9200937,7.0400005" id="Fill-15" fill="#E0BF3B"></path>
                <g id="Group-19" transform="translate(16.640001, 0.000000)">
                    <mask id="mask-10" fill="white">
                        <use xlink:href="#path-9"></use>
                    </mask>
                    <g id="Clip-18"></g>
                    <path d="M0.949548589,-8.80734007e-06 C0.437158987,-8.80734007e-06 0.021771132,0.438332508 0.021771132,0.978838968 L0.021771132,8.60564318 C0.021771132,9.14632578 0.437158987,9.58449095 0.949548589,9.58449095 C1.46193819,9.58449095 1.87732605,9.14632578 1.87732605,8.60564318 L1.87732605,0.978838968 C1.87732605,0.438332508 1.46193819,-8.80734007e-06 0.949548589,-8.80734007e-06" id="Fill-17" fill="#4D5C7D" mask="url(#mask-10)"></path>
                </g>
                <path d="M26.8800019,7.0400005 C25.8195378,7.0400005 24.9600018,7.89960825 24.9600018,8.96004684 C24.9600018,10.0204854 25.8195378,10.8800008 26.8800019,10.8800008 C27.9405584,10.8800008 28.800002,10.020393 28.800002,8.96004684 C28.800002,7.89960825 27.9405584,7.0400005 26.8800019,7.0400005" id="Fill-20" fill="#E0BF3B"></path>
                <g id="Group-24" transform="translate(26.240002, 0.000000)">
                    <mask id="mask-12" fill="white">
                        <use xlink:href="#path-11"></use>
                    </mask>
                    <g id="Clip-23"></g>
                    <path d="M0.938996936,-8.80734007e-06 C0.426690813,-8.80734007e-06 0.0112194791,0.438332508 0.0112194791,0.978838968 L0.0112194791,8.60564318 C0.0112194791,9.14632578 0.426690813,9.58449095 0.938996936,9.58449095 C1.45138654,9.58449095 1.86685787,9.14632578 1.86685787,8.60564318 L1.86685787,0.978838968 C1.86685787,0.438332508 1.45138654,-8.80734007e-06 0.938996936,-8.80734007e-06" id="Fill-22" fill="#4D5C7D" mask="url(#mask-12)"></path>
                </g>
                <path d="M35.8400487,7.0400005 C34.7796102,7.0400005 33.9200024,7.89960825 33.9200024,8.96004684 C33.9200024,10.0204854 34.7796102,10.8800008 35.8400487,10.8800008 C36.9005798,10.8800008 37.7600027,10.020393 37.7600027,8.96004684 C37.7600027,7.89960825 36.9003949,7.0400005 35.8400487,7.0400005" id="Fill-25" fill="#E0BF3B"></path>
                <g id="Group-29" transform="translate(35.200002, 0.000000)">
                    <mask id="mask-14" fill="white">
                        <use xlink:href="#path-13"></use>
                    </mask>
                    <g id="Clip-28"></g>
                    <path d="M0.928395196,-8.80734007e-06 C0.416005595,-8.80734007e-06 0.000534260907,0.438332508 0.000534260907,0.978838968 L0.000534260907,8.60564318 C0.000534260907,9.14632578 0.416005595,9.58449095 0.928395196,9.58449095 C1.4407848,9.58449095 1.85617265,9.14632578 1.85617265,8.60564318 L1.85617265,0.978838968 C1.85617265,0.438332508 1.44086828,-8.80734007e-06 0.928395196,-8.80734007e-06" id="Fill-27" fill="#4D5C7D" mask="url(#mask-14)"></path>
                </g>
                <mask id="mask-16" fill="white">
                    <use xlink:href="#path-15"></use>
                </mask>
                <g id="Clip-31"></g>
                <polygon id="Fill-30" fill="#FFE05C" mask="url(#mask-16)" points="16.6400012 26.8800019 20.4800014 26.8800019 20.4800014 23.0400016 16.6400012 23.0400016"></polygon>
                <polygon id="Fill-32" fill="#FFE05C" mask="url(#mask-16)" points="24.3200017 26.8800019 28.160002 26.8800019 28.160002 23.0400016 24.3200017 23.0400016"></polygon>
                <polygon id="Fill-33" fill="#FFE05C" mask="url(#mask-16)" points="32.0000023 26.8800019 35.8400025 26.8800019 35.8400025 23.0400016 32.0000023 23.0400016"></polygon>
                <polygon id="Fill-34" fill="#FFE05C" mask="url(#mask-16)" points="8.96000063 33.2800024 12.8000009 33.2800024 12.8000009 29.4400021 8.96000063 29.4400021"></polygon>
                <polygon id="Fill-35" fill="#FFE05C" mask="url(#mask-16)" points="16.6400012 33.2800024 20.4800014 33.2800024 20.4800014 29.4400021 16.6400012 29.4400021"></polygon>
                <polygon id="Fill-36" fill="#FFE05C" mask="url(#mask-16)" points="24.3200017 33.2800024 28.160002 33.2800024 28.160002 29.4400021 24.3200017 29.4400021"></polygon>
                <polygon id="Fill-37" fill="#FFE05C" mask="url(#mask-16)" points="32.0000023 33.2800024 35.8400025 33.2800024 35.8400025 29.4400021 32.0000023 29.4400021"></polygon>
                <polygon id="Fill-38" fill="#FFE05C" mask="url(#mask-16)" points="8.96000063 39.6800028 12.8000009 39.6800028 12.8000009 35.8400025 8.96000063 35.8400025"></polygon>
                <polygon id="Fill-39" fill="#FFE05C" mask="url(#mask-16)" points="16.6400012 39.6800028 20.4800014 39.6800028 20.4800014 35.8400025 16.6400012 35.8400025"></polygon>
                <polygon id="Fill-40" fill="#FFE05C" mask="url(#mask-16)" points="24.3200017 39.6800028 28.160002 39.6800028 28.160002 35.8400025 24.3200017 35.8400025"></polygon>
            </g>
        </g>
    </g>
</svg>