<?xml version="1.0" encoding="UTF-8"?>
<svg width="25px" height="25px" viewBox="0 0 25 25" version="1.1" xmlns="http://www.w3.org/2000/svg" xmlns:xlink="http://www.w3.org/1999/xlink">
    <title>noun_edit_1517274</title>
    <g id="Page-1" stroke="none" stroke-width="1" fill="none" fill-rule="evenodd">
        <g id="Page-Asso-privée-Copy-10" transform="translate(-349.000000, -89.000000)" fill="#000000" fill-rule="nonzero">
            <g id="noun_edit_1517274" transform="translate(349.000000, 89.000000)">
                <path d="M24.1071429,11.625 L9.69464286,11.625 C9.29553571,10.12 7.90892857,9 6.25,9 C4.59107143,9 3.20446429,10.12 2.80535714,11.625 L0.892857143,11.625 C0.4,11.625 0,12.017 0,12.5 C0,12.983 0.4,13.375 0.892857143,13.375 L2.80535714,13.375 C3.20446429,14.88 4.59107143,16 6.25,16 C7.90892857,16 9.29553571,14.88 9.69464286,13.375 L24.1071429,13.375 C24.6,13.375 25,12.983 25,12.5 C25,12.017 24.6,11.625 24.1071429,11.625 Z M6.25,14.25 C5.26517857,14.25 4.46428571,13.465125 4.46428571,12.5 C4.46428571,11.534875 5.26517857,10.75 6.25,10.75 C7.23482143,10.75 8.03571429,11.534875 8.03571429,12.5 C8.03571429,13.465125 7.23482143,14.25 6.25,14.25 Z" id="Shape"></path>
                <path d="M24.1071429,2.625 L21.3017857,2.625 C20.9026786,1.12 19.5160714,0 17.8571429,0 C16.1982143,0 14.8116071,1.12 14.4125,2.625 L0.892857143,2.625 C0.4,2.625 0,3.017 0,3.5 C0,3.983 0.4,4.375 0.892857143,4.375 L14.4125,4.375 C14.8116071,5.88 16.1982143,7 17.8571429,7 C19.5160714,7 20.9026786,5.88 21.3017857,4.375 L24.1071429,4.375 C24.6,4.375 25,3.983 25,3.5 C25,3.017 24.6,2.625 24.1071429,2.625 Z M17.8571429,5.25 C16.8723214,5.25 16.0714286,4.465125 16.0714286,3.5 C16.0714286,2.534875 16.8723214,1.75 17.8571429,1.75 C18.8419643,1.75 19.6428571,2.534875 19.6428571,3.5 C19.6428571,4.465125 18.8419643,5.25 17.8571429,5.25 Z" id="Shape"></path>
                <path d="M24.1071429,20.625 L19.5160714,20.625 C19.1169643,19.12 17.7303571,18 16.0714286,18 C14.4125,18 13.0258929,19.12 12.6267857,20.625 L0.892857143,20.625 C0.4,20.625 0,21.017 0,21.5 C0,21.983 0.4,22.375 0.892857143,22.375 L12.6267857,22.375 C13.0258929,23.88 14.4125,25 16.0714286,25 C17.7303571,25 19.1169643,23.88 19.5160714,22.375 L24.1071429,22.375 C24.6,22.375 25,21.983 25,21.5 C25,21.017 24.6,20.625 24.1071429,20.625 Z M16.0714286,23.25 C15.0866071,23.25 14.2857143,22.465125 14.2857143,21.5 C14.2857143,20.534875 15.0866071,19.75 16.0714286,19.75 C17.05625,19.75 17.8571429,20.534875 17.8571429,21.5 C17.8571429,22.465125 17.05625,23.25 16.0714286,23.25 Z" id="Shape"></path>
            </g>
        </g>
    </g>
</svg>