<?xml version="1.0" encoding="utf-8"?>
<!-- Generator: Adobe Illustrator 24.3.0, SVG Export Plug-In . SVG Version: 6.00 Build 0)  -->
<svg version="1.1" id="Calque_1" xmlns="http://www.w3.org/2000/svg" xmlns:xlink="http://www.w3.org/1999/xlink" x="0px" y="0px"
	 viewBox="0 0 821 617.8" style="enable-background:new 0 0 821 617.8;" xml:space="preserve">
<style type="text/css">
	.st0{opacity:0;fill:#4C4C4C;}
	.st1{fill:#F9D655;}
</style>
<rect y="-87.7" class="st0" width="821" height="705.5"/>
<g transform="translate(0,-952.36218)">
	<path class="st1" d="M675.5,932.4c-22.9,0-41.5,18.6-41.5,41.5c0,22.9,18.6,41.5,41.5,41.5c22.9,0,41.5-18.6,41.5-41.5
		C717,951,698.5,932.4,675.5,932.4z M675.5,945.7c2.8,0,5,2.2,5,5v18.3h18.3c2.8,0,5,2.2,5,5c0,2.8-2.2,5-5,5h-18.3v18.3
		c0,2.8-2.2,5-5,5c-2.8,0-5-2.2-5-5v-18.3h-18.3c-2.8,0-5-2.2-5-5c0-2.8,2.2-5,5-5h18.3v-18.3C670.6,947.9,672.8,945.7,675.5,945.7z
		"/>
</g>
</svg>
