<svg xmlns="http://www.w3.org/2000/svg" viewBox="0 0 821.01 705.49"><defs><style>.cls-1{fill:#4c4c4c;opacity:0.68;}.cls-2{fill:#f9d655;}</style></defs><g id="Calque_2" data-name="Calque 2"><g id="Calque_1-2" data-name="Calque 1"><rect class="cls-1" width="821.01" height="705.49"/><path class="cls-2" d="M675.54,67.75a41.5,41.5,0,1,0,41.5,41.5A41.5,41.5,0,0,0,675.54,67.75Zm0,13.28a5,5,0,0,1,5,5v18.26h18.26a5,5,0,1,1,0,10H680.52v18.26a5,5,0,0,1-10,0V114.23H652.3a5,5,0,1,1,0-10h18.26V86A5,5,0,0,1,675.54,81Z"/></g></g></svg>