<?xml version="1.0" encoding="UTF-8"?>
<svg width="38px" height="42px" viewBox="0 0 38 42" version="1.1" xmlns="http://www.w3.org/2000/svg" xmlns:xlink="http://www.w3.org/1999/xlink">
    <title>Group 42</title>
    <defs>
        <polygon id="path-1" points="0 0.466627849 11.6731236 0.466627849 11.6731236 11.995415 0 11.995415"></polygon>
    </defs>
    <g id="Page-1" stroke="none" stroke-width="1" fill="none" fill-rule="evenodd">
        <g id="event-detail-public" transform="translate(-180.000000, -385.000000)">
            <g id="Group-42" transform="translate(180.000000, 385.000000)">
                <path d="M6.87407414,0.376634807 C6.26524807,0.641917539 5.68585758,1.05351353 5.15552641,1.63061141 C4.23566429,2.63129817 3.71072964,3.59840484 3.48800035,4.52041824 C7.35779897,3.23669927 13.4318325,6.41097745 15.9883133,11.1616011 L18.1376018,10.0971122 C17.1240364,4.03638519 11.2207293,-1.51632299 6.87407414,0.376634807" id="Fill-1" fill="#C2E3F5"></path>
                <path d="M19.4981145,40.170141 C19.0569571,38.6503074 18.7589969,37.1130331 18.6009292,35.548352 C18.4902268,34.4515803 16.6374759,34.8033844 16.7470768,35.8886951 C16.9051444,37.4533762 17.2036554,38.9906505 17.6442621,40.5094875 C17.9521359,41.5728727 19.8076406,41.2370143 19.4981145,40.170141" id="Fill-3" fill="#000000"></path>
                <path d="M25.0390289,37.8719841 C24.4558937,36.5512592 23.8538513,35.2376785 23.2333994,33.9317183 C22.7781359,32.9734426 21.2546204,33.7140583 21.7093863,34.6718577 C22.3298383,35.976389 22.9313831,37.290446 23.5145183,38.6111709 C23.9429138,39.5818299 25.4654342,38.8378803 25.0390289,37.8719841" id="Fill-5" fill="#000000"></path>
                <path d="M31.8874777,34.7835956 C30.9868606,33.6444666 30.1994918,32.4391449 29.5112153,31.1471058 C28.9854893,30.1608869 27.4869015,30.9510935 28.0150682,31.9434699 C28.7755893,33.3694336 29.6532639,34.7117587 30.6466275,35.9699318 C31.3358802,36.8417247 32.5772186,35.6569279 31.8874777,34.7835956" id="Fill-7" fill="#000000"></path>
                <path d="M36.062698,30.7753018 C35.169326,29.8140944 34.2208187,28.9211821 33.2234516,28.076261 C32.46097,27.4297648 31.630802,28.7652109 32.3896975,29.407554 C33.2830695,30.1652604 34.1235474,30.98111 34.9232341,31.8417205 C35.6063745,32.5763543 36.7507692,31.5150115 36.062698,30.7753018" id="Fill-9" fill="#000000"></path>
                <path d="M20.2937458,36.2752037 C21.3515548,36.0542019 22.3985985,35.6765728 23.4044531,35.1250823 L25.8112026,33.8051545 C24.8872579,32.8349772 24.0297774,31.789781 23.2223789,30.6944031 C21.3468742,31.6133851 19.401629,32.3726984 17.4400018,32.9642328 C18.3330547,34.1341227 19.2850828,35.2431864 20.2937458,36.2752037" id="Fill-11" fill="#E0BF3B"></path>
                <path d="M14.966512,11.8592012 L12.7532456,12.9725155 C11.628701,13.5383061 10.6295362,14.2550383 9.76640099,15.0842556 C10.671168,21.5132132 13.5544171,27.7609448 17.73842,32.7872033 C19.7672475,32.2267005 21.7781636,31.5061227 23.7184024,30.6346033 C19.4395175,25.3093459 16.6801959,18.565526 14.966512,11.8592012" id="Fill-13" fill="#FFE05C"></path>
                <path d="M20.2304021,36.0467463 C19.2131064,35.0307589 18.2529304,33.9389218 17.3522344,32.7872033 C15.2836546,33.3959973 13.1990247,33.8251472 11.1616011,34.0671678 C13.7876872,35.944948 17.0600274,36.6939642 20.2304021,36.0467463" id="Fill-15" fill="#000000"></path>
                <path d="M9.38801354,15.3472016 C5.56493266,18.9667811 4.39585907,24.7585866 6.91785053,29.6280448 C7.90210194,31.5277263 9.3361851,33.0625811 11.0279436,34.1824035 C13.1387302,33.9509799 15.2974336,33.5392945 17.4400018,32.9559541 C13.2135392,27.9564397 10.3013676,21.7414734 9.38801354,15.3472016" id="Fill-17" fill="#000000"></path>
                <path d="M23.7184024,30.6541727 C24.5533048,31.6509126 25.4394816,32.6019898 26.3938631,33.4848034 L31.1440032,31.1901338 C31.7259195,30.9092385 32.2739754,30.5882154 32.7872033,30.2349054 C31.8207288,29.2584601 30.8982729,28.2469605 30.0169333,27.2064028 C28.0723749,28.5430767 25.9440026,29.694332 23.7184024,30.6541727" id="Fill-19" fill="#000000"></path>
                <path d="M29.996803,27.1312156 C25.607306,21.8755854 22.3394871,15.8400015 20.9315911,9.06880092 C20.5417425,9.21325447 20.1573223,9.37773128 19.7763564,9.56461508 L14.6496015,12.0737208 C16.3965177,18.7252585 19.2103358,25.4130288 23.571211,30.6944031 C25.8417086,29.7027748 28.0130169,28.512344 29.996803,27.1312156" id="Fill-21" fill="#000000"></path>
                <path d="M36.4594004,15.0118317 L36.4594004,15.0118317 C33.5664208,9.4263213 26.7815906,6.96713594 20.9280021,9.17792835 C22.3165934,15.9364055 25.5384755,21.9606482 29.8657813,27.2064028 C33.1051789,24.9251848 35.8385726,22.1257677 37.6704038,18.8509779 C37.4908698,17.5457253 37.0996899,16.2495138 36.4594004,15.0118317" id="Fill-23" fill="#FFE05C"></path>
                <path d="M29.996803,26.769134 C30.8559094,27.878123 31.7560604,28.9556512 32.6986713,29.996803 C36.3223922,27.2685723 38.1458112,22.6531924 37.5636381,18.1376018 C35.7873968,21.520608 33.1374241,24.4125325 29.996803,26.769134" id="Fill-25" fill="#E0BF3B"></path>
                <path d="M31.278842,15.2237923 C31.5398665,15.7389908 31.3340179,16.3679234 30.8187597,16.6293421 C30.3022281,16.8903364 29.673647,16.6840872 29.4121981,16.1688887 C29.1511735,15.6532659 29.357871,15.0243333 29.8727048,14.7629146 C30.3875386,14.5014959 31.0178174,14.707745 31.278842,15.2237923" id="Fill-27" fill="#000000"></path>
                <path d="M34.5780371,18.9701146 C35.2745923,20.3439166 34.7252646,22.0232761 33.3500145,22.7193487 C31.9757298,23.4149385 30.2973357,22.8660935 29.6007805,21.4913261 C28.9047079,20.1165587 29.4545183,18.4381646 30.828803,17.7420921 C32.2030877,17.0450541 33.8824472,17.5953472 34.5780371,18.9701146" id="Fill-29" fill="#F7B8B8"></path>
                <g id="Group-33" transform="translate(0.000000, 4.185600)">
                    <mask id="mask-2" fill="white">
                        <use xlink:href="#path-1"></use>
                    </mask>
                    <g id="Clip-32"></g>
                    <path d="M3.05594947,0.622960022 C1.9756652,1.08627173 1.09913387,1.9309392 0.570065268,3.2266013 C-1.96306599,9.42967242 4.53389646,11.4946783 8.50215706,11.9703071 C8.85798645,11.5302083 9.24679036,11.1123751 9.66856877,10.7196497 C9.73008837,11.1460102 9.80095896,11.5714232 9.88068837,11.995415 C9.80095896,11.5714232 9.73008837,11.1460102 9.66856877,10.7196497 C10.2719531,10.1573276 10.9412864,9.64711626 11.6731236,9.20228017 C10.8408864,9.03457838 10.0780433,8.81476587 9.49680603,8.52673569 C6.65361597,7.1178512 2.561824,4.1641206 3.471822,0.466627849 C3.33008083,0.513053767 3.19080044,0.564690757 3.05594947,0.622960022" id="Fill-31" fill="#C2E3F5" mask="url(#mask-2)"></path>
                </g>
                <path d="M3.61618169,4.46993126 C2.71434831,8.18808685 6.76894047,11.1583239 9.58662109,12.5750817 C10.1631311,12.8647215 10.9201054,13.0857624 11.7439002,13.2544013 C12.07215,13.0514629 12.413081,12.8618632 12.7671811,12.6870313 L14.9961582,11.5842087 L16.0448016,11.0654295 C13.5031825,6.34782611 7.46445935,3.19561144 3.61618169,4.46993126" id="Fill-34" fill="#A6D9F2"></path>
                <path d="M14.4328811,11.8592012 L12.1498263,13.0620828 C11.7882927,13.2526948 11.439243,13.4588882 11.1026771,13.6801437 C10.3611338,14.1683598 9.68101115,14.7272115 9.06880092,15.3437143 C9.13171975,15.8111553 9.20312763,16.2775576 9.28402328,16.7424017 C11.283444,16.5938593 13.8381483,15.7955739 15.3472016,15.2689237 C15.0146306,14.1351196 14.7105229,12.996641 14.4328811,11.8592012" id="Fill-36" fill="#C2D6AB"></path>
                <path d="M9.55121839,14.6496015 C9.12483805,15.0712701 8.73133284,15.5209481 8.37120085,15.9935429 C8.40955515,15.9986356 8.44641514,16.0032189 8.48427134,16.0078023 C8.86881061,16.0546543 9.30266256,16.0546543 9.76640099,16.0210431 C9.68570752,15.5647446 9.61397998,15.107937 9.55121839,14.6496015" id="Fill-38" fill="#4F7082"></path>
                <path d="M15.6728965,11.1616011 L14.6496015,11.6579336 C14.9135239,12.6560678 15.2046009,13.6551135 15.5218795,14.6496015 C16.2650546,14.4107785 16.7424017,14.2353074 16.7424017,14.2353074 C16.5785221,13.1606041 16.2035997,12.1264642 15.6728965,11.1616011" id="Fill-40" fill="#4F7082"></path>
            </g>
        </g>
    </g>
</svg>