<?xml version="1.0" encoding="UTF-8"?>
<svg width="133px" height="132px" viewBox="0 0 133 132" version="1.1" xmlns="http://www.w3.org/2000/svg" xmlns:xlink="http://www.w3.org/1999/xlink">
    <title>Group 3</title>
    <g id="Page-1" stroke="none" stroke-width="1" fill="none" fill-rule="evenodd">
        <g id="choose-asso/bene" transform="translate(-245.000000, -323.000000)">
            <g id="Group-3" transform="translate(245.000000, 323.000000)">
                <rect id="Rectangle-Copy" fill="#FFFFFF" x="0" y="0" width="133" height="132" rx="15"></rect>
                <g id="Group-18" transform="translate(23.000000, 22.000000)">
                    <path d="M86,44.0013461 L86,44.1336463 C86,44.5982352 85.9625981,45.0559015 85.8939007,45.5016454 C85.2370771,49.6983301 81.6068005,52.9339155 77.2670323,52.9339155 L72.8211648,52.9339155 C76.9189655,53.6542592 80.0603454,57.2752073 80.0603454,61.6018845 L80.0603454,61.6876489 C80.0603454,62.1522379 80.0237068,62.6099042 79.9546278,63.0556481 C79.2974225,67.2527173 75.6698175,70.4879181 71.3277594,70.4879181 L64.2149057,70.4879181 C66.330786,70.789824 68.2092786,71.86284 69.559946,73.4123673 C70.9083236,74.9615101 71.7284943,76.9887026 71.7284943,79.1997308 C71.7284943,79.8335409 71.6330813,80.5504233 71.6204867,80.5773448 C71.542248,81.1069301 71.3747027,81.7657388 71.1205222,82.4191632 C71.1205222,82.4191632 71.1205222,82.4210862 71.1182323,82.4233938 C70.3350818,84.4359717 68.8046562,86.1685656 66.5822949,87.2196597 L66.580005,87.2196597 C65.4419178,87.726554 64.2755885,88 62.99629,88 L23.0021834,88 C22.9262346,88 22.8525757,88 22.7785352,87.9976924 C21.7160152,87.9700017 20.7019651,87.749245 19.7638637,87.3684974 C18.6597437,86.9227535 17.6643945,86.2512532 16.8343008,85.4151469 C15.2512071,83.8194683 14.2692157,81.6199779 14.2692157,79.1997308 C14.2692157,74.7776743 17.5510438,71.0917299 21.783186,70.4879181 L14.6703323,70.4879181 C9.86685661,70.4879181 5.93736465,66.5277585 5.93736465,61.6876489 L5.93736465,61.6018845 C5.93736465,57.2748227 9.07874463,53.6538746 13.1765452,52.9339155 L8.732586,52.9339155 C3.92949196,52.9339155 0,48.9741405 0,44.1336463 L0,44.0013461 C0,39.1608519 3.92949196,35.2010769 8.732586,35.2010769 L13.4990414,35.2010769 C9.24438172,34.6203406 5.93698299,30.9228584 5.93698299,26.4819569 L5.93698299,26.3981155 C5.93698299,21.5583905 9.86685661,17.5982309 14.6699507,17.5982309 L21.7709731,17.5982309 C17.5460823,16.9917269 14.2688341,13.3084746 14.2688341,8.88834113 L14.2688341,8.80026922 C14.2688341,3.95977501 18.1987077,0 23.0018018,0 L62.995145,0 C69.9122111,0 74.1363386,7.82724758 70.2686743,13.7449883 C70.2644762,13.7472958 70.2621862,13.7496034 70.2621862,13.7546031 C68.8115259,15.8348695 66.9162406,17.0747991 64.6499893,17.5263119 C64.4927486,17.5563102 64.23437,17.5974617 64.225592,17.5986155 L71.3269961,17.5986155 C77.7280683,17.5986155 82.3220169,24.5812956 78.9371428,30.7836355 L78.9348528,30.7863277 C78.7192193,31.1689983 78.4680921,31.554361 78.2020804,31.889342 C78.2020804,31.8916495 78.2020804,31.8916495 78.2001722,31.8916495 C77.1700927,33.2438804 75.6274541,34.3065123 74.1897699,34.7899464 C74.1829002,34.7949461 74.1779387,34.7968691 74.1714506,34.7968691 C73.753923,34.9518603 73.0951912,35.119543 72.5116448,35.1983847 C72.507065,35.1983847 72.5024852,35.2006923 72.4979054,35.2006923 L77.266269,35.2006923 C82.0678365,35.2010769 86,39.1608519 86,44.0013461" id="Fill-3" fill="#FFD422"></path>
                    <path d="M20.5750695,52.9101945 L77.3620933,52.9101945 C81.7076043,52.9101945 85.341983,49.6764435 86,45.4816395 C21.101636,45.6307949 10.5244515,45.3409413 8.2951417,45.5112399 C7.84117872,45.5458378 7.43803819,45.2113914 7.40173644,44.7543146 C6.98789645,39.5623221 11.0548392,35.1853024 16.1237103,35.1853024 L20.8979641,35.1853024 C20.8933786,35.184918 20.888411,35.1837647 20.8838255,35.1829959 L72.601596,35.1829959 C76.4365897,34.6536479 79.4993113,31.6005748 80.0648544,27.7544409 L14.1286424,27.7544409 C13.7109812,27.7544409 13.3693626,27.4249919 13.3422318,27.0055884 C13.0082556,21.8727967 17.0641168,17.5903447 22.0703197,17.5903447 L29.1801136,17.5903447 C29.1571861,17.5880382 29.131966,17.5834251 29.1086564,17.578812 C65.6442695,17.5346036 64.0725946,17.6806837 65.0584738,17.4465712 C68.5186041,16.6323671 71.2064623,13.7319092 71.72424,10.1498726 L22.4004745,10.1498726 C22.0290503,10.1510259 21.7168552,9.87924009 21.6904887,9.50635154 C21.3163896,4.23901243 25.4467648,0 30.4124626,0 L23.0302144,0 C18.2208053,0 14.2864595,3.95838496 14.2864595,8.7963256 L14.2864595,8.88435806 C14.2864595,13.3025108 17.5677559,16.9844969 21.7978654,17.5903447 L14.6884536,17.5903447 C9.87904451,17.5903447 5.9446987,21.5487296 5.9446987,26.3866703 L5.9446987,26.4700897 C5.9446987,30.9090011 9.25618285,34.6048264 13.5160981,35.1853024 L8.74375494,35.1853024 C3.93434581,35.1853024 0,39.1436874 0,43.9812436 L0,44.1138689 C0,48.952194 3.93472794,52.9101945 8.74375494,52.9101945 L13.1928214,52.9101945 C9.08995903,53.629831 5.94431658,57.2491565 5.94431658,61.5738948 L5.94431658,61.6600052 C5.94431658,66.4983302 9.87942664,70.4563308 14.6880715,70.4563308 L14.7457722,70.4563308 L21.8093292,70.4563308 C17.5727235,71.059872 14.2864595,74.7441647 14.2864595,79.1642395 C14.2864595,82.8542985 16.5692666,86.0234667 19.7871304,87.3274234 C19.7875126,87.3278078 19.7875126,87.3285767 19.7878947,87.3289611 C22.3083827,88.351137 23.8322921,87.8064122 30.4124626,87.9605651 C30.3818927,87.9605651 30.352087,87.958643 30.3218992,87.9582586 C65.1322237,87.9509546 64.178825,88.2842477 66.6611007,87.1805745 L66.6637756,87.1805745 C68.9278586,86.1114992 70.4464183,84.3335512 71.2049338,82.3864579 C71.2076087,82.3841514 71.2076087,82.3818448 71.2076087,82.3818448 C71.4322975,81.805213 71.6183917,81.1493905 71.7078087,80.5412362 C71.7101014,80.5362387 71.7101014,80.5339322 71.7101014,80.5297035 L22.8334207,80.5297035 C22.1975668,80.5297035 21.6866674,80.0141947 21.6713825,79.3745179 C21.5632415,74.9629003 24.7929512,71.0829373 29.1919594,70.4563308 L71.415484,70.4563308 C75.7629056,70.4563308 79.3953736,67.2221953 80.0526264,63.0270069 L14.3456887,63.0270069 C13.809187,63.0270069 13.3647771,62.6037592 13.3387927,62.0644162 C13.3246541,61.7787913 13.3269468,61.5861963 13.3265647,61.5738948 C13.3265647,57.2495409 16.4722072,53.6302154 20.5750695,52.9101945" id="Fill-5" fill="#EEBF00"></path>
                    <path d="M48.2867414,62.5070546 C48.217033,62.5237849 48.1497145,62.5381251 48.0796077,62.5524653 C37.9284629,64.7875483 27.8442382,58.4364231 25.4940673,48.2851389 C23.1267681,38.0637469 29.4945362,27.8590852 39.7153894,25.4945418 C42.5686562,24.8332982 45.4191346,24.8524185 48.0991261,25.4487328 C55.0197818,26.9811449 60.8004055,32.3455832 62.5060719,39.7140675 C64.8729728,49.9350611 58.5052047,60.1397229 48.2867414,62.5070546" id="Fill-7" fill="#1D1D1F"></path>
                    <path d="M46.6918238,60.9559401 C46.6240346,60.9721727 46.5585695,60.9860864 46.4903929,61 C39.7602752,59.5112404 34.1388025,54.3059927 32.4804836,47.1570867 C30.1783603,37.2397526 36.3704249,27.3386511 46.3106545,25.0444464 C46.3761196,25.0282138 46.4439088,25.0139136 46.5093739,25 C53.2394915,26.4868271 58.8609643,31.6916883 60.5196706,38.8409808 C62.8214065,48.7579284 56.6289545,58.6590299 46.6918238,60.9559401" id="Fill-9" fill="#2D2D30"></path>
                </g>
            </g>
        </g>
    </g>
</svg>