<svg xmlns="http://www.w3.org/2000/svg" viewBox="0 0 821.01 617.8"><defs><style>.cls-1{opacity:0.11;}.cls-2{fill:#fff;}</style></defs><g id="Calque_2" data-name="Calque 2"><g id="Calque_1-2" data-name="Calque 1"><path class="cls-1" d="M0,0V617.8H821V0ZM437,316.79H408v29a7.89,7.89,0,1,1-15.77,0v-29H363.16a7.89,7.89,0,0,1,0-15.77h29.06V272A7.89,7.89,0,0,1,408,272V301H437a7.89,7.89,0,1,1,0,15.77Z"/><path class="cls-2" d="M400.1,242.91a66,66,0,1,0,66,66A66,66,0,0,0,400.1,242.91ZM437,316.79H408v29a7.89,7.89,0,1,1-15.77,0v-29H363.16a7.89,7.89,0,0,1,0-15.77h29.06V272A7.89,7.89,0,0,1,408,272V301H437a7.89,7.89,0,1,1,0,15.77Z"/></g></g></svg>