<?xml version="1.0" encoding="utf-8"?>
<!-- Generator: Adobe Illustrator 24.3.0, SVG Export Plug-In . SVG Version: 6.00 Build 0)  -->
<svg version="1.1" id="Calque_1" xmlns="http://www.w3.org/2000/svg" xmlns:xlink="http://www.w3.org/1999/xlink" x="0px" y="0px"
	 viewBox="0 0 200 200" style="enable-background:new 0 0 200 200;" xml:space="preserve">
<style type="text/css">
	.st0{opacity:0.51;fill:#333333;}
	.st1{fill:#FFFFFF;}
</style>
<path class="st0" d="M-2,0v200h202V0H-2z M126.3,105.4h-21v21c0,3.2-2.6,5.7-5.7,5.7c-3.2,0-5.7-2.6-5.7-5.7v-21h-21
	c-3.2,0-5.7-2.6-5.7-5.7c0-3.2,2.6-5.7,5.7-5.7h21V73c0-3.2,2.6-5.7,5.7-5.7c3.2,0,5.7,2.6,5.7,5.7v21h21c3.2,0,5.7,2.6,5.7,5.7
	C132.1,102.8,129.5,105.4,126.3,105.4z"/>
<g transform="translate(0,-952.36218)">
	<path class="st1" d="M99.6,1004.4c-26.3,0-47.7,21.3-47.7,47.7c0,26.3,21.4,47.7,47.7,47.7c26.3,0,47.7-21.4,47.7-47.7
		C147.3,1025.7,126,1004.4,99.6,1004.4z M126.3,1057.8h-21v21c0,3.2-2.6,5.7-5.7,5.7c-3.2,0-5.7-2.6-5.7-5.7v-21h-21
		c-3.2,0-5.7-2.6-5.7-5.7c0-3.2,2.6-5.7,5.7-5.7h21v-21c0-3.2,2.6-5.7,5.7-5.7c3.2,0,5.7,2.6,5.7,5.7v21h21c3.2,0,5.7,2.6,5.7,5.7
		C132.1,1055.2,129.5,1057.8,126.3,1057.8z"/>
</g>
</svg>
