<?xml version="1.0" encoding="utf-8"?>
<!-- Generator: Adobe Illustrator 24.3.0, SVG Export Plug-In . SVG Version: 6.00 Build 0)  -->
<svg version="1.1" id="Calque_1" xmlns="http://www.w3.org/2000/svg" xmlns:xlink="http://www.w3.org/1999/xlink" x="0px" y="0px"
	 viewBox="0 0 821.9 618.7" style="enable-background:new 0 0 821.9 618.7;" xml:space="preserve">
<style type="text/css">
	.st0{clip-path:url(#SVGID_2_);}
	.st1{clip-path:url(#SVGID_4_);fill:#F8F8F8;}
	.st2{clip-path:url(#SVGID_6_);}
	.st3{clip-path:url(#SVGID_8_);fill:#74D5DE;}
	.st4{clip-path:url(#SVGID_10_);fill:none;stroke:#56CAD8;stroke-width:4;stroke-linecap:round;stroke-miterlimit:10;}
	.st5{clip-path:url(#SVGID_12_);}
	.st6{clip-path:url(#SVGID_14_);fill:#56CAD8;}
	.st7{clip-path:url(#SVGID_16_);}
	.st8{clip-path:url(#SVGID_18_);fill:#74D5DE;}
	.st9{clip-path:url(#SVGID_20_);fill:none;stroke:#56CAD8;stroke-width:4;stroke-linecap:round;stroke-miterlimit:10;}
	
		.st10{clip-path:url(#SVGID_22_);fill:none;stroke:#74D5DE;stroke-width:4;stroke-linecap:round;stroke-linejoin:round;stroke-miterlimit:10;}
	.st11{clip-path:url(#SVGID_24_);fill:none;stroke:#6D6D6D;stroke-width:3;stroke-linecap:round;stroke-miterlimit:10;}
	.st12{clip-path:url(#SVGID_26_);}
	.st13{clip-path:url(#SVGID_28_);fill:#FD8369;}
	.st14{clip-path:url(#SVGID_30_);}
	.st15{clip-path:url(#SVGID_32_);fill:#333333;}
	.st16{clip-path:url(#SVGID_34_);}
	.st17{clip-path:url(#SVGID_36_);fill:#333333;}
	.st18{clip-path:url(#SVGID_38_);}
	.st19{clip-path:url(#SVGID_40_);fill:#DE8E68;}
	.st20{clip-path:url(#SVGID_42_);}
	.st21{clip-path:url(#SVGID_44_);fill:#DE8E68;}
	.st22{clip-path:url(#SVGID_46_);}
	.st23{clip-path:url(#SVGID_48_);fill:#FCC486;}
	.st24{clip-path:url(#SVGID_50_);}
	.st25{clip-path:url(#SVGID_52_);fill:#56CAD8;}
	.st26{clip-path:url(#SVGID_54_);}
	.st27{clip-path:url(#SVGID_56_);fill:#74D5DE;}
	.st28{clip-path:url(#SVGID_58_);}
	.st29{clip-path:url(#SVGID_60_);fill:#FED385;}
	.st30{clip-path:url(#SVGID_62_);}
	.st31{clip-path:url(#SVGID_64_);fill:#FD8369;}
	.st32{clip-path:url(#SVGID_66_);}
	.st33{clip-path:url(#SVGID_68_);fill:#DE8E68;}
	.st34{clip-path:url(#SVGID_70_);}
	.st35{clip-path:url(#SVGID_72_);fill:#DE8E68;}
	.st36{clip-path:url(#SVGID_74_);fill:none;stroke:#333333;stroke-width:7;stroke-linecap:round;stroke-miterlimit:10;}
	.st37{clip-path:url(#SVGID_76_);}
	.st38{clip-path:url(#SVGID_78_);fill:#DE8E68;}
	.st39{clip-path:url(#SVGID_80_);}
	.st40{clip-path:url(#SVGID_82_);fill:#FED892;}
	.st41{opacity:0.36;fill:#191919;enable-background:new    ;}
</style>
<g>
	<g>
		<defs>
			<path id="SVGID_1_" d="M426.8,463.1c32.7-22.7,95.2-55.9,154.9-78.9c1.1-0.9,2.1-1.9,3.2-2.9c24.5-21.6,57.1-48.6,61.1-78.1
				c3.9-29.6-21-61.7-51.4-79.1c-30.4-17.3-66.4-19.9-102.4-20s-72.1,2.3-90.1,21.9c-17.9,19.5-17.6,56.3-20.3,89.8
				c-2.7,33.5-8.5,63.9,0.3,92.3C389.1,431.5,406.1,453.6,426.8,463.1z"/>
		</defs>
		<clipPath id="SVGID_2_">
			<use xlink:href="#SVGID_1_"  style="overflow:visible;"/>
		</clipPath>
		<g class="st0">
			<g>
				<defs>
					<rect id="SVGID_3_" x="298.9" y="-260.3" width="414" height="896"/>
				</defs>
				<clipPath id="SVGID_4_">
					<use xlink:href="#SVGID_3_"  style="overflow:visible;"/>
				</clipPath>
				<rect x="372.4" y="199.1" class="st1" width="279" height="269"/>
			</g>
		</g>
	</g>
</g>
<g>
	<g>
		<defs>
			<path id="SVGID_5_" d="M604,376.1c-3.2-1.1-13.6-14.8-13.6-31.1c0-18.9,20.1-54.7,22-67.4c1.2-8.1,6.7-79.5,48.4-79.5
				c22.7,0,24.6,44.2,24.6,64c0,46.2-67.5,85.5-67.5,109.5C613.4,373.4,608.7,374.9,604,376.1z"/>
		</defs>
		<clipPath id="SVGID_6_">
			<use xlink:href="#SVGID_5_"  style="overflow:visible;"/>
		</clipPath>
		<g class="st2">
			<g>
				<defs>
					<rect id="SVGID_7_" x="298.9" y="-260.3" width="414" height="896"/>
				</defs>
				<clipPath id="SVGID_8_">
					<use xlink:href="#SVGID_7_"  style="overflow:visible;"/>
				</clipPath>
				<rect x="585.4" y="193.1" class="st3" width="105" height="188"/>
			</g>
		</g>
	</g>
</g>
<g>
	<g>
		<defs>
			<rect id="SVGID_9_" x="298.9" y="-260.3" width="414" height="896"/>
		</defs>
		<clipPath id="SVGID_10_">
			<use xlink:href="#SVGID_9_"  style="overflow:visible;"/>
		</clipPath>
		<path class="st4" d="M609.4,374.1c0-37,27.7-104.3,52-128"/>
	</g>
</g>
<g>
	<g>
		<defs>
			<path id="SVGID_11_" d="M450.2,449.1c-2.1-0.6-7.9-8-7.9-17.5c0-9.2,2.6-22.5,2.6-34.9c0-6.9-2.6-9.3-2.6-17.5
				c0-13.1,12.3-17,16.6-17c6.4,0,9.8,5.5,9.8,8.4c0,4-1.1,7.1-1.1,11.6c0,8.7,3,9.8,2.7,17.4c-0.9,22-10,43.5-18,48.4L450.2,449.1z
				"/>
		</defs>
		<clipPath id="SVGID_12_">
			<use xlink:href="#SVGID_11_"  style="overflow:visible;"/>
		</clipPath>
		<g class="st5">
			<g>
				<defs>
					<rect id="SVGID_13_" x="298.9" y="-260.3" width="414" height="896"/>
				</defs>
				<clipPath id="SVGID_14_">
					<use xlink:href="#SVGID_13_"  style="overflow:visible;"/>
				</clipPath>
				<rect x="437.4" y="357.1" class="st6" width="38" height="97"/>
			</g>
		</g>
	</g>
</g>
<g>
	<g>
		<defs>
			<path id="SVGID_15_" d="M450.1,448.9c2.6-2.2-11.9-73.1-24.5-85.6c-13.7-13.6-25-20.8-28.7-25.3c-6.6-7.9-10.8-37.9-39.8-37.9
				c-7.7,0-25.8,6.4-29,33.3c-1.1,8.8-3,22.4,15.4,42c12.4,13.2,27.8,8.7,42.9,23c10.9,10.3,9.4,25.8,19.5,38.9
				C414,447.7,435.1,461.9,450.1,448.9z"/>
		</defs>
		<clipPath id="SVGID_16_">
			<use xlink:href="#SVGID_15_"  style="overflow:visible;"/>
		</clipPath>
		<g class="st7">
			<g>
				<defs>
					<rect id="SVGID_17_" x="298.9" y="-260.3" width="414" height="896"/>
				</defs>
				<clipPath id="SVGID_18_">
					<use xlink:href="#SVGID_17_"  style="overflow:visible;"/>
				</clipPath>
				<rect x="322.4" y="295.1" class="st8" width="133" height="164"/>
			</g>
		</g>
	</g>
</g>
<g>
	<g>
		<defs>
			<rect id="SVGID_19_" x="298.9" y="-260.3" width="414" height="896"/>
		</defs>
		<clipPath id="SVGID_20_">
			<use xlink:href="#SVGID_19_"  style="overflow:visible;"/>
		</clipPath>
		<path class="st9" d="M446.4,451.1c0-17.9-56.4-98.5-79-110"/>
	</g>
	<g>
		<defs>
			<rect id="SVGID_21_" x="298.9" y="-260.3" width="414" height="896"/>
		</defs>
		<clipPath id="SVGID_22_">
			<use xlink:href="#SVGID_21_"  style="overflow:visible;"/>
		</clipPath>
		<path class="st10" d="M449.3,449.1c-0.6-4.2-3.2-40,4.1-53"/>
	</g>
	<g>
		<defs>
			<rect id="SVGID_23_" x="298.9" y="-260.3" width="414" height="896"/>
		</defs>
		<clipPath id="SVGID_24_">
			<use xlink:href="#SVGID_23_"  style="overflow:visible;"/>
		</clipPath>
		<path class="st11" d="M405.4,482.1c16.8-24,166.9-105.9,257-121"/>
	</g>
</g>
<g>
	<g>
		<defs>
			<path id="SVGID_25_" d="M506.4,230.1h22c6.6,0,12,5.4,12,12v61c0,6.6-5.4,12-12,12h-22c-6.6,0-12-5.4-12-12v-61
				C494.4,235.5,499.7,230.1,506.4,230.1z"/>
		</defs>
		<clipPath id="SVGID_26_">
			<use xlink:href="#SVGID_25_"  style="overflow:visible;"/>
		</clipPath>
		<g class="st12">
			<g>
				<defs>
					<rect id="SVGID_27_" x="298.9" y="-260.3" width="414" height="896"/>
				</defs>
				<clipPath id="SVGID_28_">
					<use xlink:href="#SVGID_27_"  style="overflow:visible;"/>
				</clipPath>
				<rect x="489.4" y="225.1" class="st13" width="56" height="95"/>
			</g>
		</g>
	</g>
</g>
<g>
	<g>
		<defs>
			<polygon id="SVGID_29_" points="498.4,454.1 498.4,464.1 471.4,464.1 471.4,459.9 488.1,452.1 			"/>
		</defs>
		<clipPath id="SVGID_30_">
			<use xlink:href="#SVGID_29_"  style="overflow:visible;"/>
		</clipPath>
		<g class="st14">
			<g>
				<defs>
					<rect id="SVGID_31_" x="298.9" y="-260.3" width="414" height="896"/>
				</defs>
				<clipPath id="SVGID_32_">
					<use xlink:href="#SVGID_31_"  style="overflow:visible;"/>
				</clipPath>
				<rect x="466.4" y="447.1" class="st15" width="37" height="22"/>
			</g>
		</g>
	</g>
</g>
<g>
	<g>
		<defs>
			<path id="SVGID_33_" d="M556.8,444.1c1.4,3,4.6,10.7,4.6,10.7l-13.4,8.3h-12.2l-1.4-4.6l15.3-11.5L556.8,444.1z"/>
		</defs>
		<clipPath id="SVGID_34_">
			<use xlink:href="#SVGID_33_"  style="overflow:visible;"/>
		</clipPath>
		<g class="st16">
			<g>
				<defs>
					<rect id="SVGID_35_" x="298.9" y="-260.3" width="414" height="896"/>
				</defs>
				<clipPath id="SVGID_36_">
					<use xlink:href="#SVGID_35_"  style="overflow:visible;"/>
				</clipPath>
				<rect x="529.4" y="439.1" class="st17" width="37" height="29"/>
			</g>
		</g>
	</g>
</g>
<g>
	<g>
		<defs>
			<ellipse id="SVGID_37_" cx="509.9" cy="214.6" rx="11.5" ry="14.5"/>
		</defs>
		<clipPath id="SVGID_38_">
			<use xlink:href="#SVGID_37_"  style="overflow:visible;"/>
		</clipPath>
		<g class="st18">
			<g>
				<defs>
					<rect id="SVGID_39_" x="298.9" y="-260.3" width="414" height="896"/>
				</defs>
				<clipPath id="SVGID_40_">
					<use xlink:href="#SVGID_39_"  style="overflow:visible;"/>
				</clipPath>
				<rect x="493.4" y="195.1" class="st19" width="33" height="39"/>
			</g>
		</g>
	</g>
</g>
<g>
	<g>
		<defs>
			<path id="SVGID_41_" d="M501.8,189.4c-1.5-2-5.7-1.6-9.4,1.1c-1.4,1-2.6,2.2-3.5,3.6c-0.1-0.1-0.2-0.1-0.4-0.1
				c-1.8,0-31.5,15.7-31.2,23s10.3,18.9,13.7,21.1c0,0,15.7-7.3,14.9-9.6c-0.8-2.3-9.9-9.8-11.5-11.3c1.9-1,16.8-15.6,18.5-17.3
				c1.8-0.4,3.4-1.1,4.9-2.2C501.5,195.2,503.3,191.4,501.8,189.4z"/>
		</defs>
		<clipPath id="SVGID_42_">
			<use xlink:href="#SVGID_41_"  style="overflow:visible;"/>
		</clipPath>
		<g class="st20">
			<g>
				<defs>
					<rect id="SVGID_43_" x="298.9" y="-260.3" width="414" height="896"/>
				</defs>
				<clipPath id="SVGID_44_">
					<use xlink:href="#SVGID_43_"  style="overflow:visible;"/>
				</clipPath>
				<rect x="452.4" y="183.1" class="st21" width="55" height="60"/>
			</g>
		</g>
	</g>
</g>
<g>
	<g>
		<defs>
			<path id="SVGID_45_" d="M493.3,251.4c3.5-2.7-2.3-25.7-8.4-26.3c-6.2-0.6-16.9,10.8-16.5,14C468.8,242.4,484.5,258.3,493.3,251.4
				z"/>
		</defs>
		<clipPath id="SVGID_46_">
			<use xlink:href="#SVGID_45_"  style="overflow:visible;"/>
		</clipPath>
		<g class="st22">
			<g>
				<defs>
					<rect id="SVGID_47_" x="298.9" y="-260.3" width="414" height="896"/>
				</defs>
				<clipPath id="SVGID_48_">
					<use xlink:href="#SVGID_47_"  style="overflow:visible;"/>
				</clipPath>
				<rect x="463.4" y="220.1" class="st23" width="36" height="38"/>
			</g>
		</g>
	</g>
</g>
<g>
	<g>
		<defs>
			<path id="SVGID_49_" d="M479.4,306.4c0,3.8,1.9,135,5.4,146.3c3.1,1.5,11.1,1.9,13.8,0.8c2.7-1.1,19.8-145,19.8-151.3
				C518.4,295.8,479.4,306.4,479.4,306.4z"/>
		</defs>
		<clipPath id="SVGID_50_">
			<use xlink:href="#SVGID_49_"  style="overflow:visible;"/>
		</clipPath>
		<g class="st24">
			<g>
				<defs>
					<rect id="SVGID_51_" x="298.9" y="-260.3" width="414" height="896"/>
				</defs>
				<clipPath id="SVGID_52_">
					<use xlink:href="#SVGID_51_"  style="overflow:visible;"/>
				</clipPath>
				<rect x="474.4" y="295.1" class="st25" width="49" height="164"/>
			</g>
		</g>
	</g>
</g>
<g>
	<g>
		<defs>
			<path id="SVGID_53_" d="M548.3,449c-3.7-5.7-51.2-116.7-55-144.1c3.9-3,33-7.8,35.3-2.3c2.4,5.5,30.6,140.8,29.6,142.5
				C557.4,446.9,551.1,449.6,548.3,449z"/>
		</defs>
		<clipPath id="SVGID_54_">
			<use xlink:href="#SVGID_53_"  style="overflow:visible;"/>
		</clipPath>
		<g class="st26">
			<g>
				<defs>
					<rect id="SVGID_55_" x="298.9" y="-260.3" width="414" height="896"/>
				</defs>
				<clipPath id="SVGID_56_">
					<use xlink:href="#SVGID_55_"  style="overflow:visible;"/>
				</clipPath>
				<rect x="488.4" y="295.1" class="st27" width="75" height="159"/>
			</g>
		</g>
	</g>
</g>
<g>
	<g>
		<defs>
			<path id="SVGID_57_" d="M510.4,233.1c24.6,0,23.1,67.5,17.7,71.6c-5.3,4.2-47.1,4.3-49.7,1.3C475.7,303,469.4,233.1,510.4,233.1z
				"/>
		</defs>
		<clipPath id="SVGID_58_">
			<use xlink:href="#SVGID_57_"  style="overflow:visible;"/>
		</clipPath>
		<g class="st28">
			<g>
				<defs>
					<rect id="SVGID_59_" x="298.9" y="-260.3" width="414" height="896"/>
				</defs>
				<clipPath id="SVGID_60_">
					<use xlink:href="#SVGID_59_"  style="overflow:visible;"/>
				</clipPath>
				<rect x="471.4" y="228.1" class="st29" width="65" height="85"/>
			</g>
		</g>
	</g>
</g>
<g>
	<g>
		<defs>
			<path id="SVGID_61_" d="M528.4,209.8c0-2.9-2.8-5-2.8-6.6s0.9-4.5-1.2-6.6c-2.6-2.5-6.7-1.5-10.4-1.5c-3.5,0-5.4-4-10.1-4
				c-3.1,0-2.7,4.1-3.9,5.1c-0.9,0.8-7.7,2.2-7.7,5.4c0,3.5,0.1,8.2,7.3,8.2c0.5-1.7,2.3-5.4,4.3-7c1.1,0.5,6.9,2.9,8.3,3.3
				c1.4,0.4,3.5,6.6,5.8,7.4c2.2,0.7,2.4,4.9,4,4.7C523.7,217.9,528.4,217.3,528.4,209.8z"/>
		</defs>
		<clipPath id="SVGID_62_">
			<use xlink:href="#SVGID_61_"  style="overflow:visible;"/>
		</clipPath>
		<g class="st30">
			<g>
				<defs>
					<rect id="SVGID_63_" x="298.9" y="-260.3" width="414" height="896"/>
				</defs>
				<clipPath id="SVGID_64_">
					<use xlink:href="#SVGID_63_"  style="overflow:visible;"/>
				</clipPath>
				<rect x="487.4" y="186.1" class="st31" width="46" height="37"/>
			</g>
		</g>
	</g>
</g>
<g>
	<g>
		<defs>
			<circle id="SVGID_65_" cx="519.4" cy="215.1" r="3"/>
		</defs>
		<clipPath id="SVGID_66_">
			<use xlink:href="#SVGID_65_"  style="overflow:visible;"/>
		</clipPath>
		<g class="st32">
			<g>
				<defs>
					<rect id="SVGID_67_" x="298.9" y="-260.3" width="414" height="896"/>
				</defs>
				<clipPath id="SVGID_68_">
					<use xlink:href="#SVGID_67_"  style="overflow:visible;"/>
				</clipPath>
				<rect x="511.4" y="207.1" class="st33" width="16" height="16"/>
			</g>
		</g>
	</g>
</g>
<g>
	<g>
		<defs>
			<path id="SVGID_69_" d="M515.8,237.5c-0.5,1.6-10.7-0.3-10.5-2.2l1.7-16.2l12.3,2.5C519.4,221.7,516.3,235.9,515.8,237.5z"/>
		</defs>
		<clipPath id="SVGID_70_">
			<use xlink:href="#SVGID_69_"  style="overflow:visible;"/>
		</clipPath>
		<g class="st34">
			<g>
				<defs>
					<rect id="SVGID_71_" x="298.9" y="-260.3" width="414" height="896"/>
				</defs>
				<clipPath id="SVGID_72_">
					<use xlink:href="#SVGID_71_"  style="overflow:visible;"/>
				</clipPath>
				<rect x="500.4" y="214.1" class="st35" width="24" height="29"/>
			</g>
		</g>
	</g>
</g>
<g>
	<g>
		<defs>
			<rect id="SVGID_73_" x="298.9" y="-260.3" width="414" height="896"/>
		</defs>
		<clipPath id="SVGID_74_">
			<use xlink:href="#SVGID_73_"  style="overflow:visible;"/>
		</clipPath>
		<line class="st36" x1="583.4" y1="247.1" x2="541.4" y2="458.1"/>
	</g>
</g>
<g>
	<g>
		<defs>
			<path id="SVGID_75_" d="M577.1,304.8c-1.1-1.1-2.6-1.9-4.1-2.2c-5-8.2-22.1-33.3-29.6-42.5c-5.4,3.9-12,10.8-12,10.8
				c2.8,3.1,23.5,27.8,34.5,37.5c0,2,0.8,4,2.3,5.4c2.8,2.8,7.1,3.1,9.6,0.5C580.1,311.9,579.9,307.6,577.1,304.8z"/>
		</defs>
		<clipPath id="SVGID_76_">
			<use xlink:href="#SVGID_75_"  style="overflow:visible;"/>
		</clipPath>
		<g class="st37">
			<g>
				<defs>
					<rect id="SVGID_77_" x="298.9" y="-260.3" width="414" height="896"/>
				</defs>
				<clipPath id="SVGID_78_">
					<use xlink:href="#SVGID_77_"  style="overflow:visible;"/>
				</clipPath>
				<rect x="526.4" y="255.1" class="st38" width="58" height="66"/>
			</g>
		</g>
	</g>
</g>
<g>
	<g>
		<defs>
			<path id="SVGID_79_" d="M519.3,243.9c9.9-7.4,26.3,10.5,26.1,15.1c-0.3,4.7-12.9,15.1-17.2,15.1
				C522.9,274.1,510.8,250.2,519.3,243.9z"/>
		</defs>
		<clipPath id="SVGID_80_">
			<use xlink:href="#SVGID_79_"  style="overflow:visible;"/>
		</clipPath>
		<g class="st39">
			<g>
				<defs>
					<rect id="SVGID_81_" x="298.9" y="-260.3" width="414" height="896"/>
				</defs>
				<clipPath id="SVGID_82_">
					<use xlink:href="#SVGID_81_"  style="overflow:visible;"/>
				</clipPath>
				<rect x="511.4" y="237.1" class="st40" width="39" height="42"/>
			</g>
		</g>
	</g>
</g>
<rect y="0.8" class="st41" width="821.9" height="618.7"/>
</svg>
