<?xml version="1.0" encoding="utf-8"?>
<!-- Generator: Adobe Illustrator 24.3.0, SVG Export Plug-In . SVG Version: 6.00 Build 0)  -->
<svg version="1.1" id="Calque_1" xmlns="http://www.w3.org/2000/svg" xmlns:xlink="http://www.w3.org/1999/xlink" x="0px" y="0px"
	 viewBox="0 0 429.2 554.5" style="enable-background:new 0 0 429.2 554.5;" xml:space="preserve">
<style type="text/css">
	.st0{fill:none;stroke:#333333;stroke-width:7.6;stroke-miterlimit:10;}
	.st1{fill:#333333;}
	.st2{opacity:0.11;}
	.st3{fill:#F9D655;}
</style>
<g id="Calque_1-2">
	<line class="st0" x1="131.3" y1="432" x2="309.9" y2="432"/>
	<line class="st0" x1="130.2" y1="451" x2="308.8" y2="451"/>
	<line class="st0" x1="130.2" y1="470" x2="308.8" y2="470"/>
	<path class="st1" d="M231.1,528.9C231.2,533.3,231.2,523.6,231.1,528.9z"/>
	<path class="st1" d="M429.1,288.4c0-20,0.3-39.9-0.2-59.8c-0.3-4.4-2-8.7-5-12c-13-13.8-26.5-27.2-40.2-40.2
		c-2.6-2.5-7.2-4-10.9-4.2c-10.7-0.6-21.4-0.4-32.1-0.1c-6.8,0.2-9.5-2.4-9.5-9.4c0.2-28.9-0.1-38.9,0.2-67.8
		c0.3-5.6-1.9-11-5.9-14.9c-7.9-8.2-15.5-16.7-23.4-25c-3.7-3.9-3.9-7.6,0-11.4c3.6-3.6,7.1-7.3,10.8-10.8c9.4-9,9.7-11.2,3.4-22.5
		c-4.4-7.9-17.8-9.9-23.9-3.8c-6.7,6.7-13.1,13.8-20.2,20c-3,2.6-7.5,4.8-11.3,4.8c-29.4,0.4-58.9,0.4-88.3,0
		c-3.9,0-8.4-2.1-11.4-4.7c-6.8-5.9-12.8-12.6-19.1-19c-9-9.1-9-9.1-20.4-4.2c-10.1,4.3-12.9,17.6-5.3,25.3c3.9,4,7.9,7.9,11.9,11.8
		c6.8,6.7,6.8,8.5,0.1,15.5c-7.8,8.3-15.9,16.4-23.5,25c-2.3,2.6-4.6,6.2-4.7,9.4c-0.4,22.1-0.3,24.2-0.3,46.4
		c0,4.9,2.4,7.2,7.1,7.2c5.8,0,11.7,0.1,17.5,0s8.7-2.4,8.6-8.9c-0.3-16.5-0.3-13.1,0.1-29.6c0.2-4,1.7-7.9,4.3-11
		c7.6-8.8,15.7-17.3,23.9-25.5c2.2-2.1,5.7-4,8.6-4.1c30.2-0.3,60.3-0.3,90.5,0c3.3,0.1,6.4,1.4,8.9,3.7
		c8.4,8.4,16.5,17.1,24.3,26.2c2.3,2.7,3.7,6.1,3.9,9.6c0.3,26,0.1,33,0.3,59.1c0,6.2-2.5,8.8-8.7,8.6c-12.6-0.2-25.3-0.1-37.9,0
		c-4.9,0-16.2,9.2-17.3,13.9c-1.3,5.6,17.8,22.6,23.5,21.2c3.9-1,8-1.6,12-1.8c20.9-0.2,41.8,0.1,62.8-0.1
		c34.4-0.3,34.5-0.5,58,24.6c3.1,3.5,4.9,8,5.1,12.7c0.5,28.7,0,57.4,0.5,86.1c0.1,8.7-1.8,15.3-8.7,20.9
		c-5.6,4.6-10,10.7-15.7,15.2c-3.3,2.6-8,4.9-12,5c-21.9,0.5-43.8,0.3-65.7,0.2c-11.1-0.1-23.5,2.4-33.1-1.6s-16.2-14.9-24.3-22.6
		c-4-3.8-5.6-8-5.5-13.5c0.2-34.3,0.2-68.6-0.1-102.9c0-4-1.3-9-3.9-11.8c-13.3-14.1-27.1-27.9-41.2-41.3c-2.8-2.5-6.4-4-10.2-4.1
		c-40.4-0.3-80.8-0.3-121.1-0.1c-3.1,0-6.1,1.1-8.5,3.1C31.4,189.5,17,204,2.8,218.6c-1.7,1.9-2.6,4.4-2.7,7
		C0,266.5-0.1,307.4,0.2,348.2c0.2,3.5,1.7,6.8,4.1,9.4c13.3,13.8,26.9,27.5,40.7,40.7c3.2,2.8,7.2,4.4,11.4,4.6
		c11.4,0.6,22.8,0.5,34.3,0.2c7-0.2,9.6,2.8,9.5,9.5c-0.2,15.3,0,30.6-0.3,46c-0.1,5.2,1.2,9.2,5.1,12.9
		c11.6,11.3,22.9,23,34.5,34.4h-0.5c2.7,2.6,5.3,5.2,8,7.8c2.6,2.5,7.1,4,10.8,4.2c5.3,0.3,10.7,0.4,16.1,0.4
		c5.2,0,10.4-0.1,15.5-0.1c5.7,0,8.3,2.6,8.3,8.3c0,6.6,0,3.1,0,9.7c0,10.9,4.8,16.5,15.2,18.1c7.9,1.2,17.8-6.9,17.8-14.8
		c0.1-5,0.1-5.3,0.1-7.4c0.2-0.9,0.4-1.7,0.4-2.6c0-0.3,0-0.5,0-0.7s0-0.7,0-1.2c-0.2-6.3,2.2-9.4,8.2-9.6h0.8
		c5.6,0.2,11.1,0.3,16.7,0.3c5.6,0,11.1-0.1,16.6-0.4c4-0.2,7.8-1.7,10.8-4.3c14.4-13.8,28.4-27.9,42.2-42.3c2.6-2.7,4.3-6.2,4.7-10
		c0.6-8.7,0.1-17.5,0.2-26.2c0.1-5.3-2.6-7.6-7.6-7.6c-5.8-0.1-11.7,0.1-17.5,0s-9.2,2.6-8.1,8.4c2.7,14.4-4.6,23.8-14.8,32.2
		c-3.7,3.1-7.2,6.6-10.2,10.4c-4.2,5.2-9.4,6.9-15.9,6.8c-28.7-0.2-57.4,0-86.1-0.3c-3.8-0.2-7.3-1.7-10.2-4.2
		c-8.2-7.5-16.2-15.5-23.6-23.8c-2.4-2.9-3.8-6.5-4-10.3c-0.5-11.4,0-22.9-0.3-34.3c-0.1-6.9,2.9-9.5,9.7-9.4
		c11.2,0.3,22.4,0.1,33.6,0.1c5.9,0,16.9-7.8,18.4-13.4c0.3-2.1-0.3-4.2-1.7-5.8c-4.6-5.1-9.4-9.8-14.6-14.3
		c-1.7-1.4-4.8-1.7-7.2-1.6c-3.8,0.2-7.5,1.7-11.3,1.8c-20.9,0.2-41.8,0.2-62.8,0c-11.6-0.1-24.5,2.3-34.4-1.9s-17.3-15.2-25.2-23.8
		c-2.5-2.8-3.9-6.4-4.1-10.1c-0.3-30.1,0-60.3-0.3-90.5c-0.1-6.6,1.7-11.5,6.7-16c6.2-5.5,11.4-12,17.7-17.3c3.2-2.7,7.9-4.9,12-4.9
		c29.7-0.4,59.3-0.1,89-0.4c6.8-0.1,12.1,1.5,16.7,6.8c5.4,6.2,11.5,11.9,17.5,17.5c4,3.8,5.4,8.1,5.4,13.6
		c-0.2,34.5-0.2,69.1,0,103.6c0,3.5,1.2,8,3.5,10.4c13.6,14.3,27.5,28.2,41.7,41.8c2.8,2.6,6.4,4.1,10.2,4.2
		c39.6,0.3,79.3,0.1,118.9,0.4c6,0,10.1-2.1,14-6.1c12.6-12.9,25.2-25.7,38-38.3c3.6-3.5,4.9-7.3,4.8-12.2
		C429,327.3,429.1,307.9,429.1,288.4z"/>
</g>
<path class="st2" d="M479.2,2.4v617.8h821V2.4H479.2z M916.3,319.2h-29.1v29c0,4.4-3.6,7.9-7.9,7.9c-4.4,0-7.9-3.6-7.9-7.9v-29
	h-29.1c-4.4,0-7.9-3.6-7.9-7.9c0-4.4,3.6-7.9,7.9-7.9h29.1v-29.1c0-4.4,3.6-7.9,7.9-7.9c4.4,0,7.9,3.6,7.9,7.9v29.1h29.1
	c4.4,0,7.9,3.6,7.9,7.9C924.3,315.6,920.7,319.2,916.3,319.2z"/>
<g transform="translate(0,-952.36218)">
	<path class="st3" d="M879.3,1197.7c-36.4,0-66,29.5-66,66c0,36.4,29.6,66,66,66c36.4,0,66-29.6,66-66
		C945.3,1227.1,915.8,1197.7,879.3,1197.7z M916.3,1271.6h-29.1v29c0,4.4-3.6,7.9-7.9,7.9c-4.4,0-7.9-3.6-7.9-7.9v-29h-29.1
		c-4.4,0-7.9-3.6-7.9-7.9c0-4.4,3.6-7.9,7.9-7.9h29.1v-29.1c0-4.4,3.6-7.9,7.9-7.9c4.4,0,7.9,3.6,7.9,7.9v29.1h29.1
		c4.4,0,7.9,3.6,7.9,7.9C924.3,1268,920.7,1271.6,916.3,1271.6z"/>
</g>
</svg>
