<?xml version="1.0" encoding="UTF-8"?>
<svg width="45px" height="72px" viewBox="0 0 45 72" version="1.1" xmlns="http://www.w3.org/2000/svg" xmlns:xlink="http://www.w3.org/1999/xlink">
    <title>Fill 1</title>
    <g id="Page-1" stroke="none" stroke-width="1" fill="none" fill-rule="evenodd">
        <g id="iPhone-11-Copy-2" transform="translate(-108.000000, -269.000000)" fill="#F4C042">
            <g id="Group-3" transform="translate(108.000000, 269.000000)">
                <path d="M22.5648609,32.0299282 C27.4307166,31.9982573 31.3580604,28.0084481 31.3580604,23.0973046 C31.2710556,18.2718163 27.3251696,14.4317239 22.5441794,14.5188188 C17.9464699,14.6037543 14.2166699,18.300608 14.0497917,22.9389502 C14.014134,27.8191427 17.9436173,32.0083344 22.5648609,32.0299282 M45,22.4422935 C44.949366,26.4529767 43.8553864,30.380164 41.827174,33.8294092 C39.787551,37.4283712 37.5482447,40.9625518 35.2090968,44.352774 C30.2170127,51.4931146 26.1734245,59.0509348 23.969776,67.5444851 C23.6631194,68.7177467 23.4919622,69.9341958 23.1924372,71.143447 C23.0476667,71.4601557 22.8494097,71.7509518 22.6076502,72 C22.3544802,71.7631883 22.1483784,71.4803099 22.0014685,71.1650408 C19.7193729,60.5049154 14.7344204,51.1908018 8.41586821,42.466918 C6.31348764,39.6474911 4.40722467,36.6841058 2.71062923,33.5990756 C-3.89318489,21.1898547 1.81205409,4.38270223 17.1805416,0.63978177 C31.2717687,-2.78643004 44.9935816,7.98886214 45,22.4422935" id="Fill-1"></path>
            </g>
        </g>
    </g>
</svg>